<svg width="180" height="180" viewBox="0 0 180 180" fill="none" xmlns="http://www.w3.org/2000/svg">
<g clip-path="url(#clip0_2245_114)">
<path d="M88.0744 37.05C104.268 37.05 119.161 43.3654 129.37 54.0547L117.219 65.7147C110.413 57.6177 99.8945 52.5931 88.0744 52.5931C66.6959 52.5931 50.0219 68.2963 50.0219 89.8349C50.0219 111.373 66.3759 127.407 87.7544 127.407C106.381 127.407 119.982 115.587 120.462 99.7134H84.8314V86.4318H135.845V141.329H120.942V122.543C114.307 135.174 101.185 142.951 83.2098 142.951C56.6574 142.951 32.6865 121.092 32.6865 89.8349C32.6865 58.5779 57.6281 37.0393 88.0638 37.0393" fill="black"/>
<path d="M90.0053 180C40.3781 180 0 139.633 0 90.0053C0 40.3781 40.3781 0 90.0053 0C139.633 0 180.011 40.3781 180.011 90.0053C180.011 139.633 139.633 180.011 90.0053 180.011M90.0053 11.468C46.6935 11.4574 11.4574 46.6935 11.4574 90.0053C11.4574 133.317 46.6935 168.553 90.0053 168.553C133.317 168.553 168.553 133.317 168.553 90.0053C168.553 46.6935 133.317 11.4574 90.0053 11.4574" fill="black"/>
</g>
<defs>
<clipPath id="clip0_2245_114">
<rect width="180" height="180" fill="white"/>
</clipPath>
</defs>
</svg>
