<svg width="100" height="28" viewBox="0 0 100 28" fill="none" xmlns="http://www.w3.org/2000/svg">
<path d="M46.9999 24.2631C46.9999 24.678 46.9226 25.0683 46.7644 25.4339C46.6061 25.7996 46.3917 26.1195 46.1174 26.3938C45.8432 26.668 45.5197 26.886 45.147 27.0442C44.7778 27.2025 44.384 27.2798 43.9691 27.2798H37.9533V16.4612H43.9691C44.384 16.4612 44.7778 16.5385 45.147 16.6967C45.5162 16.855 45.8397 17.0694 46.1174 17.3472C46.3917 17.6214 46.6097 17.9414 46.7644 18.3071C46.9226 18.6727 46.9999 19.063 46.9999 19.4779V24.2631ZM39.3492 25.8805H43.9656C44.4262 25.8805 44.813 25.7222 45.1294 25.4093C45.4423 25.0964 45.6006 24.7132 45.6006 24.2631V19.4779C45.6006 19.2528 45.5584 19.0419 45.474 18.845C45.3896 18.6481 45.2736 18.4758 45.1294 18.3211C44.9818 18.1699 44.8095 18.0504 44.6055 17.966C44.4051 17.8816 44.1906 17.8394 43.9656 17.8394H39.3492V25.8769V25.8805Z" fill="#030303"/>
<path d="M50.6408 16.4612H49.2415V27.2798H50.6408V16.4612Z" fill="#030303"/>
<path d="M54.7261 27.0442C54.3604 26.886 54.044 26.6751 53.7732 26.4043C53.5025 26.1336 53.2881 25.8172 53.1334 25.4515C52.9751 25.0858 52.8978 24.6956 52.8978 24.2807V19.4603C52.8978 19.0454 52.9751 18.6551 53.1334 18.2895C53.2916 17.9238 53.506 17.6074 53.7732 17.3366C54.044 17.0659 54.3604 16.855 54.7261 16.6967C55.0918 16.5385 55.482 16.4612 55.8969 16.4612H59.9754C60.3903 16.4612 60.7806 16.5385 61.1463 16.6967C61.5119 16.855 61.8284 17.0659 62.0991 17.3366C62.3698 17.6074 62.5808 17.9238 62.739 18.2895C62.8972 18.6551 62.9746 19.0454 62.9746 19.4603V19.8646H61.5928V19.4603C61.5928 19.0102 61.4346 18.6305 61.1216 18.3141C60.8087 18.0012 60.4255 17.8429 59.9754 17.8429H55.8969C55.6719 17.8429 55.4644 17.8851 55.2746 17.9695C55.0847 18.0539 54.916 18.1699 54.7683 18.3141C54.6206 18.4618 54.5081 18.6305 54.4237 18.8274C54.3393 19.0243 54.2971 19.2353 54.2971 19.4603V24.2807C54.2971 24.5057 54.3393 24.7132 54.4237 24.903C54.5081 25.0929 54.6241 25.2617 54.7683 25.4093C54.916 25.557 55.0812 25.6695 55.2746 25.7539C55.4679 25.8383 55.6754 25.8805 55.8969 25.8805H59.9754C60.2004 25.8805 60.4114 25.8383 60.6083 25.7539C60.8052 25.6695 60.9775 25.5535 61.1216 25.4093C61.2693 25.2652 61.3818 25.0964 61.4662 24.903C61.5506 24.7132 61.5928 24.5057 61.5928 24.2807V22.5614H57.2119V21.162H62.9746V24.2807C62.9746 24.6956 62.8972 25.0858 62.739 25.4515C62.5808 25.8172 62.3663 26.1336 62.0991 26.4043C61.8284 26.6751 61.5119 26.886 61.1463 27.0442C60.7806 27.2025 60.3903 27.2798 59.9754 27.2798H55.8969C55.482 27.2798 55.0918 27.2025 54.7261 27.0442Z" fill="#030303"/>
<path d="M66.6166 16.4612H65.2172V27.2798H66.6166V16.4612Z" fill="#030303"/>
<path d="M73.1549 18.3739C73.2006 18.1875 73.2604 18.0117 73.3412 17.8429H68.876V16.4612H79.1567V17.8429H75.5844C75.2821 17.8429 75.0219 17.9484 74.8109 18.1629C74.5965 18.3774 74.491 18.634 74.491 18.9399V27.2798H73.0916V18.9399C73.0916 18.7501 73.1127 18.5602 73.1584 18.3739" fill="#030303"/>
<path d="M82.774 27.2798H81.3747V19.5447C81.3747 19.1192 81.4556 18.7149 81.6208 18.3387C81.7826 17.9625 82.0006 17.6355 82.2783 17.3613C82.5526 17.087 82.8795 16.8655 83.2557 16.7038C83.6319 16.542 84.0328 16.4612 84.4617 16.4612H90.4283V27.2798H89.029V22.5614H83.6179V21.162H89.029V17.8429H84.4617C84.2262 17.8429 84.0082 17.8887 83.8042 17.9765C83.6038 18.068 83.4245 18.1875 83.2733 18.3387C83.1221 18.4899 83.0026 18.6692 82.9112 18.8766C82.8198 19.0841 82.7776 19.3056 82.7776 19.5412V27.2763L82.774 27.2798Z" fill="#030303"/>
<path d="M94.4813 27.0442C94.1156 26.886 93.7992 26.6751 93.5285 26.4043C93.2578 26.1336 93.0468 25.8172 92.8886 25.4515C92.7303 25.0858 92.653 24.6956 92.653 24.2807V16.4612H94.0524V24.2807C94.0524 24.5057 94.0946 24.7132 94.1789 24.903C94.2633 25.0929 94.3793 25.2617 94.5235 25.4093C94.6712 25.557 94.8364 25.6695 95.0298 25.7539C95.2197 25.8383 95.4271 25.8805 95.6521 25.8805H100.001V27.2798H95.6521C95.2372 27.2798 94.847 27.2025 94.4813 27.0442Z" fill="#030303"/>
<path d="M37.946 0.382262H40.6357V5.02687L46.8098 0.382262H50.498L43.2024 5.65271L51.4051 11.1165H47.2879L40.6357 6.60905V11.1165H37.946V0.382262Z" fill="#030303"/>
<path d="M56.8395 0.382262H54.1427V11.12H56.8395V0.382262Z" fill="#030303"/>
<path d="M67.2543 11.1067H64.5364V3.05864H59.3116V0.37244H72.3805V3.05864H67.2543V11.1067Z" fill="#030303"/>
<path d="M18.851 0.366134H2.44902C1.29578 0.366134 0.300757 1.25216 0.248017 2.4054C0.195277 3.62896 1.16923 4.63804 2.38224 4.63804H18.8827C24.1109 4.63804 28.418 8.90644 28.2844 14.1312C28.1684 18.6492 24.8001 22.3691 20.4403 23.0371C19.9727 23.1075 19.4945 22.9844 19.1218 22.6926L13.1165 18.0093L18.9635 12.4998C19.8003 11.7122 19.9164 10.3902 19.1675 9.51822C18.3694 8.58648 16.963 8.51968 16.0805 9.34945L10.5534 14.5566V9.06466H2.45254C1.2993 9.06466 0.304276 9.95068 0.251537 11.1039C0.198797 12.3275 1.17275 13.3366 2.38576 13.3366H6.28144V25.2135C6.28144 26.3668 7.16748 27.3618 8.32072 27.4145C9.54428 27.4673 10.5534 26.4933 10.5534 25.2803V21.4233L17.4657 26.8133C17.5818 26.9047 17.7048 26.9786 17.8314 27.0418C18.176 27.2774 18.5909 27.4145 19.0374 27.4145C26.537 27.4145 32.6302 21.2792 32.5634 13.762C32.4965 6.31165 26.3084 0.362618 18.8581 0.362618" fill="#030303"/>
</svg>
