<svg width="80" height="28" viewBox="0 0 80 28" fill="none" xmlns="http://www.w3.org/2000/svg">
<path d="M21.6909 0.0777745V5.4537H16.7861V27.0629H10.9742V5.4537H6.04477V0.0777745H21.6909Z" fill="#030303"/>
<path d="M27.4377 18.4452L26.6254 18.7019C25.3069 19.1238 23.9463 19.3875 22.5715 19.4895L21.0948 19.5282L26.4356 27.0242H33.6082L27.4377 18.4452Z" fill="#030303"/>
<path d="M10.1496 23.4212L8.41973 23.3227L8.14552 21.7651L7.28056 23.2559L5.46283 23.1504L6.72153 24.2298L5.85662 25.7734L7.50559 24.9155L9.13701 25.9632L8.63073 24.3951L10.1496 23.4212Z" fill="#030303"/>
<path d="M5.2511 18.0733L3.6408 17.9819L3.38062 16.579L2.57897 17.9186L0.880768 17.8202L2.05861 18.7976L1.0179 20.1724L2.78992 19.4129L4.06974 20.3482L3.83771 18.9488L5.2511 18.0733Z" fill="#030303"/>
<path d="M4.70078 12.27L3.24516 12.1856L3.00958 10.9902L2.28883 12.1294L0.762909 12.0415L1.8247 12.8748L0.892998 14.0456L2.4857 13.4022L3.64247 14.2038L3.428 13.0084L4.70078 12.27Z" fill="#030303"/>
<path d="M7.41406 7.76315L6.15184 7.68931L5.93737 6.74703L5.31855 7.64009L3.9895 7.56625L4.91772 8.22726L4.11255 9.14493L5.49435 8.64566L6.50343 9.28557L6.31356 8.33977L7.41406 7.76315Z" fill="#030303"/>
<path d="M32.0374 5.64527C31.5382 4.50258 30.8244 3.51811 29.8927 2.69185C28.961 1.86911 27.8323 1.22217 26.4927 0.782678C24.3269 0.0689351 22.2595 0.107611 22.2595 0.107611C22.2595 1.90076 22.2665 3.66578 22.2595 5.47299C23.2018 5.56792 24.2109 5.82107 25.1145 6.51723C26.0181 7.20988 26.4717 8.226 26.4717 9.56558V9.64293C26.4717 10.7997 26.0392 11.7736 25.1742 12.5577C24.3093 13.3453 23.0963 13.7355 21.5317 13.7355L17.3231 13.7426C17.3336 15.5146 17.3231 17.2515 17.3231 19.0236H21.3278C22.9205 19.0236 24.4113 18.8231 25.8001 18.4258C27.1889 18.0285 28.4054 17.4273 29.4462 16.6292C30.4834 15.8346 31.2991 14.8431 31.8933 13.6582C32.4875 12.4768 32.7828 11.0985 32.7828 9.52691V9.44956C32.7828 8.06075 32.5332 6.79499 32.0339 5.64879" fill="#030303"/>
<path d="M39.7642 5.69622C40.1755 5.69622 40.4146 5.44658 40.4146 5.12311V5.11256C40.4146 4.73987 40.1615 4.53946 39.7466 4.53946H39.1102V5.69622H39.7606H39.7642ZM38.291 3.79056H39.8204C40.71 3.79056 41.2514 4.32498 41.2514 5.0985V5.10905C41.2514 5.98101 40.5799 6.43809 39.7396 6.43809H39.1172V7.57023H38.2945V3.79056H38.291Z" fill="#030303"/>
<path d="M42.622 3.6334H41.8098V7.57481H42.622V3.6334Z" fill="#030303"/>
<path d="M45.0813 6.56408V6.41993C44.9407 6.35664 44.7614 6.31093 44.5645 6.31093C44.2164 6.31093 44.0054 6.45157 44.0054 6.71175V6.7223C44.0054 6.94381 44.1883 7.0739 44.4485 7.0739C44.8282 7.0739 45.0848 6.86294 45.0848 6.5676M43.2144 6.75394V6.7434C43.2144 6.11052 43.689 5.8187 44.3676 5.8187C44.6559 5.8187 44.8668 5.86792 45.0672 5.93824V5.88902C45.0672 5.54797 44.8598 5.3581 44.4555 5.3581C44.1461 5.3581 43.9245 5.41787 43.6644 5.51281L43.4605 4.88696C43.7769 4.74632 44.0863 4.65491 44.5715 4.65491C45.0145 4.65491 45.3345 4.77094 45.5384 4.97838C45.7529 5.19285 45.8478 5.51281 45.8478 5.89956V7.5802H45.0638V7.26728C44.8669 7.48878 44.5926 7.63294 44.1988 7.63294C43.6573 7.63294 43.2144 7.32002 43.2144 6.74691" fill="#030303"/>
<path d="M46.5514 4.67818H47.3636V5.08955C47.5499 4.84695 47.7925 4.62544 48.2039 4.62544C48.8157 4.62544 49.1743 5.03681 49.1743 5.69781V7.57183H48.3622V5.958C48.3622 5.57124 48.1793 5.37083 47.8699 5.37083C47.5605 5.37083 47.3636 5.57124 47.3636 5.958V7.57183H46.5514V4.67818Z" fill="#030303"/>
<path d="M53.5576 6.13326V6.12271C53.5576 5.64102 53.2412 5.32459 52.8649 5.32459C52.4887 5.32459 52.1653 5.63751 52.1653 6.12271V6.13326C52.1653 6.61495 52.4852 6.93139 52.8649 6.93139C53.2447 6.93139 53.5576 6.61495 53.5576 6.13326ZM51.3496 6.13326V6.12271C51.3496 5.15582 51.9754 4.62491 52.654 4.62491C53.0865 4.62491 53.3537 4.82532 53.5435 5.05737V3.6334H54.3557V7.57481H53.5435V7.15992C53.3466 7.43065 53.0759 7.63107 52.654 7.63107C51.986 7.63107 51.3496 7.10015 51.3496 6.13326Z" fill="#030303"/>
<path d="M56.9637 5.89822C56.918 5.53256 56.7 5.28293 56.359 5.28293C56.0179 5.28293 55.8034 5.52553 55.7401 5.89822H56.9637ZM54.9455 6.14083V6.13028C54.9455 5.30402 55.5257 4.62544 56.359 4.62544C57.3153 4.62544 57.7513 5.37786 57.7513 6.19708C57.7513 6.26037 57.7442 6.33772 57.7407 6.41156H55.7471C55.828 6.78425 56.0847 6.97763 56.4469 6.97763C56.7211 6.97763 56.918 6.89324 57.1395 6.67877L57.6071 7.09717C57.3399 7.43119 56.9532 7.63512 56.4363 7.63512C55.5749 7.63512 54.942 7.02334 54.942 6.14083" fill="#030303"/>
<path d="M39.947 12.1085C40.3478 12.1085 40.5764 11.8941 40.5764 11.5741V11.5636C40.5764 11.2049 40.3302 11.0221 39.9294 11.0221H39.1102V12.1085H39.9435H39.947ZM38.291 10.2732H39.9997C40.4744 10.2732 40.8436 10.4103 41.0897 10.6564C41.2971 10.8674 41.4097 11.1627 41.4097 11.5214V11.5319C41.4097 12.1437 41.0827 12.5269 40.608 12.7027L41.5221 14.0529H40.5623L39.7606 12.8434H39.1137V14.0529H38.291V10.2732Z" fill="#030303"/>
<path d="M43.8904 12.3809C43.8447 12.0152 43.6267 11.7656 43.2857 11.7656C42.9446 11.7656 42.7301 12.0082 42.6668 12.3809H43.8904ZM41.8722 12.6235V12.6129C41.8722 11.7867 42.4524 11.1081 43.2857 11.1081C44.242 11.1081 44.678 11.8605 44.678 12.6797C44.678 12.743 44.671 12.8204 44.6675 12.8942H42.6739C42.7548 13.2669 43.0114 13.4603 43.3736 13.4603C43.6478 13.4603 43.8447 13.3759 44.0662 13.1614L44.5338 13.5763C44.2666 13.9103 43.8799 14.1142 43.363 14.1142C42.5051 14.1142 41.8687 13.506 41.8687 12.6199" fill="#030303"/>
<path d="M45.1479 12.6172V12.6066C45.1479 11.7804 45.7737 11.0983 46.6492 11.0983C47.1872 11.0983 47.5247 11.2811 47.7919 11.5835L47.2927 12.1214C47.1133 11.928 46.9305 11.805 46.6422 11.805C46.2379 11.805 45.9495 12.1671 45.9495 12.5925V12.6031C45.9495 13.0461 46.2308 13.4012 46.6738 13.4012C46.9446 13.4012 47.1344 13.2817 47.3313 13.0918L47.806 13.577C47.5282 13.8864 47.2083 14.1044 46.6352 14.1044C45.7738 14.1044 45.1444 13.4364 45.1444 12.6101" fill="#030303"/>
<path d="M48.317 13.0214V11.1474H49.1291V12.7612C49.1291 13.148 49.312 13.3484 49.6214 13.3484C49.9308 13.3484 50.1276 13.148 50.1276 12.7612V11.1474H50.9399V14.041H50.1276V13.6296C49.9413 13.8722 49.6987 14.0938 49.2873 14.0938C48.6755 14.0938 48.317 13.6824 48.317 13.0214Z" fill="#030303"/>
<path d="M53.8603 12.6066V12.5961C53.8603 12.1144 53.5403 11.7979 53.1606 11.7979C52.7809 11.7979 52.4645 12.1144 52.4645 12.5961V12.6066C52.4645 13.0883 52.7809 13.4047 53.1606 13.4047C53.5403 13.4047 53.8603 13.0918 53.8603 12.6066ZM51.6663 11.1545H52.4785V11.5694C52.6754 11.2987 52.9462 11.0983 53.3681 11.0983C54.0361 11.0983 54.6725 11.6292 54.6725 12.5961V12.6066C54.6725 13.5735 54.0467 14.1044 53.3681 14.1044C52.9356 14.1044 52.6684 13.904 52.4785 13.6719V14.9131H51.6663V11.1545Z" fill="#030303"/>
<path d="M57.1503 12.3809C57.1046 12.0152 56.8866 11.7656 56.5456 11.7656C56.2045 11.7656 55.99 12.0082 55.9268 12.3809H57.1503ZM55.1321 12.6235V12.6129C55.1321 11.7867 55.7123 11.1081 56.5456 11.1081C57.5019 11.1081 57.9379 11.8605 57.9379 12.6797C57.9379 12.743 57.9309 12.8204 57.9274 12.8942H55.9338C56.0147 13.2669 56.2713 13.4603 56.6335 13.4603C56.9077 13.4603 57.1046 13.3759 57.3261 13.1614L57.7938 13.5763C57.5265 13.9103 57.1398 14.1142 56.623 14.1142C55.7651 14.1142 55.1287 13.506 55.1287 12.6199" fill="#030303"/>
<path d="M58.5419 11.1624H59.354V11.7461C59.5193 11.3488 59.7865 11.0851 60.2682 11.1097V11.9676H60.226C59.6846 11.9676 59.354 12.2981 59.354 12.9872V14.0561H58.5419V11.1624Z" fill="#030303"/>
<path d="M62.3354 13.0236V12.8794C62.1948 12.8161 62.0154 12.7704 61.8185 12.7704C61.4704 12.7704 61.2595 12.911 61.2595 13.1677V13.1783C61.2595 13.3998 61.4423 13.5299 61.7025 13.5299C62.0822 13.5299 62.3389 13.3189 62.3389 13.0236M60.4719 13.2134V13.2029C60.4719 12.57 60.9466 12.2782 61.6252 12.2782C61.9135 12.2782 62.1244 12.3274 62.3248 12.3977V12.3485C62.3248 12.0074 62.1174 11.8176 61.7131 11.8176C61.4037 11.8176 61.1822 11.8773 60.922 11.9758L60.718 11.35C61.0345 11.2093 61.3439 11.1179 61.8291 11.1179C62.2721 11.1179 62.5921 11.2339 62.796 11.4414C63.0105 11.6558 63.1054 11.9758 63.1054 12.3626V14.0432H62.3213V13.7303C62.1244 13.9518 61.8502 14.0959 61.4564 14.0959C60.915 14.0959 60.4719 13.783 60.4719 13.2099" fill="#030303"/>
<path d="M63.6641 12.6172V12.6066C63.6641 11.7804 64.29 11.0983 65.1655 11.0983C65.7034 11.0983 66.0409 11.2811 66.3081 11.5835L65.8124 12.1214C65.6295 11.928 65.4502 11.805 65.1619 11.805C64.7576 11.805 64.4693 12.1671 64.4693 12.5925V12.6031C64.4693 13.0461 64.7506 13.4012 65.1936 13.4012C65.4678 13.4012 65.6507 13.2817 65.8511 13.0918L66.3257 13.577C66.048 13.8864 65.728 14.1044 65.1549 14.1044C64.2935 14.1044 63.6641 13.4364 63.6641 12.6101" fill="#030303"/>
<path d="M66.8946 11.154H67.7068V14.0476H66.8946V11.154ZM66.8735 10.1062H67.7279V10.834H66.8735V10.1062Z" fill="#030303"/>
<path d="M70.1509 9.89013L70.8506 10.1995L70.158 10.8465H69.5602L70.1545 9.89013H70.1509ZM70.6291 12.6291V12.6185C70.6291 12.1931 70.3232 11.8204 69.8767 11.8204C69.4302 11.8204 69.1348 12.1825 69.1348 12.6115V12.622C69.1348 13.051 69.4407 13.4237 69.8872 13.4237C70.3338 13.4237 70.6291 13.0615 70.6291 12.6361M68.3297 12.6291V12.6185C68.3297 11.7888 68.9942 11.1137 69.8837 11.1137C70.7733 11.1137 71.4272 11.7782 71.4272 12.608V12.6185C71.4272 13.4518 70.7662 14.1269 69.8732 14.1269C68.9801 14.1269 68.3297 13.4624 68.3297 12.6326" fill="#030303"/>
<path d="M72.0154 11.1608H72.8276V11.5722C73.0175 11.3296 73.2566 11.1081 73.6679 11.1081C74.2832 11.1081 74.6384 11.5194 74.6384 12.1804V14.0545H73.8261V12.4406C73.8261 12.0539 73.6468 11.8535 73.3339 11.8535C73.021 11.8535 72.8276 12.0539 72.8276 12.4406V14.0545H72.0154V11.1608Z" fill="#030303"/>
<path d="M75.1192 14.5897C75.4884 14.5511 75.6712 14.3612 75.6431 14.0553H75.3126V13.1904H76.1775V13.9182C76.1775 14.6319 75.8259 14.9167 75.1895 14.9273L75.1192 14.5862V14.5897Z" fill="#030303"/>
<path d="M39.1614 17.516H38.0258V16.746H41.1233V17.516H39.9842V20.5257H39.1614V17.516Z" fill="#030303"/>
<path d="M41.3457 17.6383H42.1579V18.222C42.3231 17.8212 42.5903 17.561 43.072 17.5821V18.44H43.0298C42.4884 18.44 42.1579 18.7705 42.1579 19.4596V20.5285H41.3457V17.6348V17.6383Z" fill="#030303"/>
<path d="M45.1368 19.5062V19.362C44.9961 19.2988 44.8168 19.253 44.6199 19.253C44.2718 19.253 44.0609 19.3937 44.0609 19.6504V19.6609C44.0609 19.8824 44.2437 20.0125 44.5039 20.0125C44.8836 20.0125 45.1403 19.8015 45.1403 19.5062M43.2733 19.6961V19.6855C43.2733 19.0526 43.748 18.7608 44.4265 18.7608C44.7148 18.7608 44.9258 18.81 45.1262 18.8804V18.8311C45.1262 18.4901 44.9188 18.3002 44.5144 18.3002C44.2015 18.3002 43.9835 18.36 43.7233 18.4584L43.5194 17.8326C43.8359 17.692 44.1452 17.6005 44.6304 17.6005C45.0735 17.6005 45.3934 17.7166 45.5973 17.924C45.8118 18.1385 45.9067 18.4584 45.9067 18.8452V20.5258H45.1227V20.2129C44.9258 20.4344 44.6516 20.5821 44.2578 20.5821C43.7163 20.5821 43.2733 20.2692 43.2733 19.6961Z" fill="#030303"/>
<path d="M46.6055 17.6336H47.4177V18.045C47.6075 17.8024 47.8466 17.5809 48.258 17.5809C48.8733 17.5809 49.2284 17.9923 49.2284 18.6533V20.5273H48.4162V18.9134C48.4162 18.5267 48.2334 18.3263 47.924 18.3263C47.6146 18.3263 47.4177 18.5267 47.4177 18.9134V20.5273H46.6055V17.6336Z" fill="#030303"/>
<path d="M49.7117 20.1433L50.0598 19.6019C50.3692 19.8304 50.6962 19.9464 50.9634 19.9464C51.199 19.9464 51.308 19.8585 51.308 19.7319V19.7214C51.308 19.5421 51.0302 19.4858 50.7138 19.3874C50.313 19.2714 49.8559 19.078 49.8559 18.5189V18.5084C49.8559 17.9212 50.327 17.5907 50.9037 17.5907C51.2658 17.5907 51.6631 17.7138 51.9725 17.9247L51.6631 18.4908C51.3783 18.3256 51.097 18.2201 50.8896 18.2201C50.6821 18.2201 50.5907 18.308 50.5907 18.4205V18.431C50.5907 18.5928 50.865 18.6701 51.1744 18.7756C51.5752 18.9127 52.0393 19.1061 52.0393 19.6335V19.644C52.0393 20.284 51.5646 20.5758 50.9423 20.5758C50.5415 20.5758 50.095 20.4387 49.7153 20.1398" fill="#030303"/>
<path d="M52.7578 18.3294H52.4202V17.6543H52.7578V17.4715C52.7578 17.1515 52.8386 16.9195 52.9898 16.7683C53.1375 16.6171 53.359 16.5397 53.6473 16.5397C53.9039 16.5397 54.0727 16.5714 54.2239 16.6206V17.2992C54.1079 17.257 53.9954 17.2289 53.8547 17.2289C53.6684 17.2289 53.5629 17.3238 53.5629 17.5418V17.6543H54.2204V18.3223H53.5734V20.5163H52.7612V18.3223L52.7578 18.3294Z" fill="#030303"/>
<path d="M56.7602 19.0963V19.0857C56.7602 18.6603 56.4543 18.2876 56.0078 18.2876C55.5613 18.2876 55.2659 18.6462 55.2659 19.0752V19.0857C55.2659 19.5112 55.5718 19.8839 56.0183 19.8839C56.4648 19.8839 56.7602 19.5217 56.7602 19.0963ZM54.4608 19.0963V19.0857C54.4608 18.256 55.1252 17.5809 56.0148 17.5809C56.9043 17.5809 57.5583 18.2454 57.5583 19.0752V19.0857C57.5583 19.919 56.8973 20.5906 56.0043 20.5906C55.1112 20.5906 54.4608 19.926 54.4608 19.0963Z" fill="#030303"/>
<path d="M58.149 17.6383H58.9611V18.222C59.1264 17.8212 59.3936 17.561 59.8753 17.5821V18.44H59.8331C59.2916 18.44 58.9611 18.7705 58.9611 19.4596V20.5285H58.149V17.6348V17.6383Z" fill="#030303"/>
<path d="M60.3821 17.6336H61.1943V18.045C61.3807 17.8024 61.6268 17.5809 62.0381 17.5809C62.4108 17.5809 62.6956 17.7461 62.8433 18.038C63.0929 17.7426 63.3953 17.5809 63.7821 17.5809C64.3868 17.5809 64.749 17.9501 64.749 18.6462V20.5308H63.9368V18.917C63.9368 18.5302 63.7645 18.3298 63.4621 18.3298C63.1597 18.3298 62.9699 18.5302 62.9699 18.917V20.5308H62.1577V18.917C62.1577 18.5302 61.9854 18.3298 61.683 18.3298C61.3806 18.3298 61.1908 18.5302 61.1908 18.917V20.5308H60.3786V17.6371L60.3821 17.6336Z" fill="#030303"/>
<path d="M67.1507 19.5062V19.362C67.0101 19.2988 66.8308 19.253 66.6339 19.253C66.2858 19.253 66.0713 19.3937 66.0713 19.6504V19.6609C66.0713 19.8824 66.2541 20.0125 66.5143 20.0125C66.894 20.0125 67.1507 19.8015 67.1507 19.5062ZM65.2872 19.6961V19.6855C65.2872 19.0526 65.7619 18.7608 66.4405 18.7608C66.7288 18.7608 66.9397 18.81 67.1402 18.8804V18.8311C67.1402 18.4901 66.9327 18.3002 66.5249 18.3002C66.2155 18.3002 65.9975 18.36 65.7373 18.4584L65.5334 17.8326C65.8498 17.692 66.1592 17.6005 66.6444 17.6005C67.0874 17.6005 67.4074 17.7166 67.6113 17.924C67.8258 18.1385 67.9207 18.4584 67.9207 18.8452V20.5258H67.1366V20.2129C66.9397 20.4344 66.6655 20.5821 66.2717 20.5821C65.7303 20.5821 65.2872 20.2692 65.2872 19.6961Z" fill="#030303"/>
<path d="M68.4794 19.0963V19.0857C68.4794 18.2595 69.1053 17.5809 69.9808 17.5809C70.5187 17.5809 70.8562 17.7637 71.1235 18.0661L70.6242 18.604C70.4449 18.4107 70.262 18.2876 69.9737 18.2876C69.5694 18.2876 69.2811 18.6462 69.2811 19.0752V19.0857C69.2811 19.5287 69.5623 19.8839 70.0054 19.8839C70.2761 19.8839 70.4624 19.7643 70.6628 19.5744L71.1375 20.0632C70.8597 20.3691 70.5398 20.5906 69.9667 20.5906C69.1053 20.5906 68.4794 19.9225 68.4794 19.0963Z" fill="#030303"/>
<path d="M71.705 17.6268H72.5172V20.5204H71.705V17.6268ZM71.6839 16.579H72.5383V17.3068H71.6839V16.579Z" fill="#030303"/>
<path d="M74.9613 16.3629L75.661 16.6723L74.9684 17.3193H74.3707L74.9648 16.3629H74.9613ZM75.436 19.1019V19.0913C75.436 18.6659 75.1301 18.2932 74.6836 18.2932C74.2371 18.2932 73.9382 18.6554 73.9382 19.0808V19.0913C73.9382 19.5203 74.2441 19.893 74.6906 19.893C75.1371 19.893 75.4325 19.5308 75.4325 19.1054M73.1401 19.1019V19.0913C73.1401 18.2616 73.8046 17.5865 74.6941 17.5865C75.5837 17.5865 76.2411 18.251 76.2411 19.0808V19.0913C76.2411 19.9246 75.5801 20.5997 74.6871 20.5997C73.794 20.5997 73.1436 19.9352 73.1436 19.1054" fill="#030303"/>
<path d="M76.8234 17.6336H77.6356V18.045C77.8254 17.8024 78.0645 17.5809 78.4759 17.5809C79.0912 17.5809 79.4463 17.9923 79.4463 18.6533V20.5273H78.6341V18.9134C78.6341 18.5267 78.4513 18.3263 78.1419 18.3263C77.8325 18.3263 77.6356 18.5267 77.6356 18.9134V20.5273H76.8234V17.6336Z" fill="#030303"/>
<path d="M38.1666 27.6821L38.4408 27.0879C38.5498 27.1512 38.6834 27.2004 38.7889 27.2004C38.9296 27.2004 39.0034 27.1547 39.0737 27.0105L37.9521 24.1028H38.8136L39.464 26.0753L40.0899 24.1028H40.9337L39.8332 27.0668C39.6152 27.6575 39.3796 27.879 38.8909 27.879C38.5991 27.879 38.3775 27.8016 38.1701 27.6786" fill="#030303"/>
<path d="M44.7525 25.0542C45.1534 25.0542 45.3819 24.8397 45.3819 24.5197V24.5092C45.3819 24.1506 45.1358 23.9677 44.735 23.9677H43.9157V25.0542H44.749H44.7525ZM43.0965 23.2188H44.8053C45.2799 23.2188 45.6491 23.3559 45.8952 23.6021C46.1027 23.813 46.2152 24.1084 46.2152 24.467V24.4775C46.2152 25.0893 45.8882 25.4726 45.4136 25.6484L46.3277 26.9985H45.3678L44.5662 25.789H43.9193V26.9985H43.0965V23.2188Z" fill="#030303"/>
<path d="M48.7019 25.3167C48.6562 24.9475 48.4382 24.7014 48.0971 24.7014C47.7561 24.7014 47.5416 24.944 47.4783 25.3167H48.7019ZM46.6802 25.5593V25.5487C46.6802 24.7225 47.2603 24.0439 48.0936 24.0439C49.05 24.0439 49.4859 24.7963 49.4859 25.6155C49.4859 25.6788 49.4789 25.7562 49.4754 25.83H47.4818C47.5627 26.2027 47.8194 26.3961 48.1815 26.3961C48.4558 26.3961 48.6526 26.3117 48.8742 26.0972L49.3418 26.5121C49.0745 26.8461 48.6878 27.05 48.171 27.05C47.3131 27.05 46.6767 26.4418 46.6767 25.5558" fill="#030303"/>
<path d="M49.8689 26.6161L50.2169 26.0747C50.5263 26.3032 50.8534 26.4192 51.1206 26.4192C51.3561 26.4192 51.4616 26.3313 51.4616 26.2048V26.1942C51.4616 26.0149 51.1838 25.9586 50.8709 25.8602C50.4701 25.7442 50.013 25.5508 50.013 24.9917V24.9812C50.013 24.394 50.4842 24.0635 51.0608 24.0635C51.4229 24.0635 51.8203 24.1866 52.1297 24.3975L51.8202 24.9636C51.539 24.7984 51.2542 24.6929 51.0467 24.6929C50.8393 24.6929 50.7479 24.7808 50.7479 24.8933V24.9038C50.7479 25.0656 51.0221 25.1394 51.3315 25.2484C51.7323 25.3855 52.1964 25.5789 52.1964 26.1063V26.1169C52.1964 26.7603 51.7218 27.0521 51.103 27.0521C50.7022 27.0521 50.2556 26.915 49.8759 26.6161" fill="#030303"/>
<path d="M52.8121 24.1094H53.6243V27.0031H52.8121V24.1094ZM52.791 23.0617H53.6453V23.7895H52.791V23.0617Z" fill="#030303"/>
<path d="M55.2385 23.0617H54.4264V27.0031H55.2385V23.0617Z" fill="#030303"/>
<path d="M56.0411 24.1094H56.8533V27.0031H56.0411V24.1094ZM56.02 23.0617H56.8744V23.7895H56.02V23.0617Z" fill="#030303"/>
<path d="M59.4968 25.3167C59.4511 24.9475 59.2366 24.7014 58.892 24.7014C58.5475 24.7014 58.3365 24.944 58.2732 25.3167H59.4968ZM57.4786 25.5593V25.5487C57.4786 24.7225 58.0587 24.0439 58.892 24.0439C59.8484 24.0439 60.2879 24.7963 60.2879 25.6155C60.2879 25.6788 60.2808 25.7562 60.2773 25.83H58.2838C58.3646 26.2027 58.6213 26.3961 58.9835 26.3961C59.2577 26.3961 59.4546 26.3117 59.6796 26.0972L60.1437 26.5121C59.8765 26.8461 59.4933 27.05 58.9729 27.05C58.115 27.05 57.4786 26.4418 57.4786 25.5558" fill="#030303"/>
<path d="M60.8869 24.0966H61.6991V24.508C61.889 24.2654 62.1281 24.0439 62.5394 24.0439C63.1547 24.0439 63.5098 24.4553 63.5098 25.1198V26.9938H62.6976V25.38C62.6976 24.9932 62.5183 24.7928 62.2054 24.7928C61.8925 24.7928 61.6991 24.9932 61.6991 25.38V26.9938H60.8869V24.1001V24.0966Z" fill="#030303"/>
<path d="M64.0767 25.5593V25.5487C64.0767 24.7225 64.7025 24.0439 65.578 24.0439C66.1159 24.0439 66.4535 24.2267 66.7207 24.5291L66.2214 25.067C66.0421 24.8737 65.8593 24.7506 65.5709 24.7506C65.1666 24.7506 64.8783 25.1127 64.8783 25.5382V25.5487C64.8783 25.9917 65.1596 26.3468 65.6026 26.3468C65.8733 26.3468 66.0597 26.2273 66.2601 26.0374L66.7347 26.5226C66.457 26.8321 66.137 27.05 65.5639 27.05C64.706 27.05 64.0767 26.382 64.0767 25.5558" fill="#030303"/>
<path d="M67.3047 24.1094H68.1169V27.0031H67.3047V24.1094ZM67.2836 23.0617H68.138V23.7895H67.2836V23.0617Z" fill="#030303"/>
<path d="M70.5712 25.9888V25.8447C70.4306 25.7814 70.2513 25.7357 70.0544 25.7357C69.7063 25.7357 69.4954 25.8763 69.4954 26.133V26.1435C69.4954 26.365 69.6782 26.4951 69.9384 26.4951C70.3181 26.4951 70.5748 26.2842 70.5748 25.9888M68.7078 26.1752V26.1646C68.7078 25.5353 69.1824 25.2399 69.861 25.2399C70.1493 25.2399 70.3603 25.2892 70.5607 25.3595V25.3102C70.5607 24.9692 70.3532 24.7829 69.9489 24.7829C69.6395 24.7829 69.418 24.8426 69.1578 24.9411L68.9539 24.3152C69.2703 24.1746 69.5798 24.0832 70.065 24.0832C70.508 24.0832 70.8279 24.1992 71.0318 24.4066C71.2428 24.6211 71.3413 24.9411 71.3413 25.3278V27.0085H70.5572V26.6955C70.3603 26.917 70.086 27.0612 69.6922 27.0612C69.1508 27.0612 68.7078 26.7483 68.7078 26.1752Z" fill="#030303"/>
</svg>
