<svg width="116" height="36" viewBox="0 0 116 36" fill="none" xmlns="http://www.w3.org/2000/svg">
<path d="M0.699219 29.1125H42.7257V0.576844H0.699219V29.1125ZM41.917 28.3003H1.50789V1.36091H41.917V28.3003Z" fill="#030303"/>
<path d="M20.8507 7.222L21.705 6.59967L22.5559 7.222L22.2324 6.21643L23.1009 5.5941H22.032L21.705 4.57447L21.378 5.5941H20.3092L21.1776 6.21643L20.8507 7.222Z" fill="#030303"/>
<path d="M16.438 8.4203L17.2924 7.79798L18.1433 8.4203L17.8198 7.41473L18.6847 6.79241H17.6194L17.2924 5.77277L16.9654 6.79241H15.8966L16.765 7.41473L16.438 8.4203Z" fill="#030303"/>
<path d="M14.0634 9.00427L13.7364 10.0274L12.6675 10.0239L13.5325 10.6462L13.209 11.6553L14.0634 11.033L14.9142 11.6553L14.5908 10.6462L15.4557 10.0239H14.3904L14.0634 9.00427Z" fill="#030303"/>
<path d="M12.8774 15.4396L13.7282 16.062L13.4048 15.0564L14.2697 14.4341H13.2043L12.8774 13.4144L12.5504 14.4341H11.4815L12.35 15.0564L12.023 16.062L12.8774 15.4396Z" fill="#030303"/>
<path d="M14.3904 18.854L14.0634 17.8344L13.7364 18.854H12.6675L13.5325 19.4764L13.209 20.4819L14.0634 19.8596L14.9142 20.4819L14.5908 19.4764L15.4557 18.854H14.3904Z" fill="#030303"/>
<path d="M17.6268 22.0855L17.2998 21.0659L16.9728 22.0855H15.9039L16.7689 22.7079L16.4454 23.7134L17.2998 23.0911L18.1507 23.7134L17.8272 22.7079L18.6921 22.0855H17.6268Z" fill="#030303"/>
<path d="M22.0285 23.2544L21.7015 22.2347L21.3745 23.2579L20.3092 23.2544L21.1741 23.8767L20.8507 24.8858L21.7015 24.2635L22.5559 24.8858L22.2289 23.8767L23.0974 23.2544H22.0285Z" fill="#030303"/>
<path d="M26.4362 22.0855L26.1127 21.0659L25.7858 22.0855H24.7169L25.5818 22.7079L25.2584 23.7134L26.1127 23.0911L26.9636 23.7134L26.6401 22.7079L27.5051 22.0855H26.4362Z" fill="#030303"/>
<path d="M29.6737 18.854L29.3467 17.8344L29.0197 18.854H27.9508L28.8193 19.4764L28.4923 20.4819L29.3467 19.8596L30.1976 20.4819L29.8741 19.4764L30.739 18.854H29.6737Z" fill="#030303"/>
<path d="M31.9103 14.4144H30.845L30.518 13.3948L30.191 14.4179L29.1221 14.4144L29.9906 15.0367L29.6671 16.0458L30.518 15.42L31.3689 16.0458L31.0454 15.0367L31.9103 14.4144Z" fill="#030303"/>
<path d="M28.4923 11.642L29.3467 11.0196L30.1976 11.642L29.8741 10.6364L30.739 10.0141H29.6737L29.3467 8.99445L29.0197 10.0141H27.9508L28.8193 10.6364L28.4923 11.642Z" fill="#030303"/>
<path d="M26.124 5.77277L25.797 6.79592L24.7316 6.79241L25.5966 7.41473L25.2731 8.42382L26.124 7.79798L26.9783 8.42382L26.6549 7.41473L27.5198 6.79241H26.4509L26.124 5.77277Z" fill="#030303"/>
<path d="M46.9175 7.37214V1.3528H51.0452V2.37243H48.134V3.7964H50.6444V4.81251H48.134V7.37214H46.9175Z" fill="#030303"/>
<path d="M52.0348 1.3528H53.1881V2.41814H52.0348V1.3528ZM52.0348 3.01234H53.1881V7.37214H52.0348V3.01234Z" fill="#030303"/>
<path d="M58.3357 7.37278H57.1825V5.14717C57.1825 4.67602 57.1579 4.37365 57.1087 4.23301C57.0594 4.09589 56.9786 3.98689 56.8696 3.90954C56.7571 3.83219 56.627 3.79352 56.4687 3.79352C56.2683 3.79352 56.089 3.84977 55.9308 3.95877C55.7726 4.06776 55.6636 4.21192 55.6038 4.39475C55.544 4.57406 55.5159 4.90808 55.5159 5.3968V7.36926H54.3627V3.01297H55.435V3.65288C55.8148 3.16064 56.2929 2.91452 56.8731 2.91452C57.1262 2.91452 57.3618 2.96023 57.5692 3.05164C57.7802 3.14306 57.9384 3.25909 58.0474 3.40324C58.1564 3.5474 58.2302 3.70562 58.2724 3.88845C58.3146 4.06776 58.3357 4.32794 58.3357 4.66548V7.37629V7.37278Z" fill="#030303"/>
<path d="M60.3663 4.34201L59.3186 4.15214C59.4346 3.73023 59.6385 3.41731 59.9269 3.2169C60.2152 3.01648 60.6406 2.91452 61.2067 2.91452C61.72 2.91452 62.1032 2.97429 62.3564 3.09735C62.6095 3.22041 62.7853 3.37511 62.8873 3.56146C62.9893 3.74781 63.042 4.09237 63.042 4.59516L63.0315 5.94178C63.0315 6.32502 63.049 6.60629 63.0877 6.78913C63.1264 6.97196 63.1932 7.16533 63.2952 7.37278H62.156C62.1243 7.29543 62.0892 7.18291 62.0435 7.03173C62.0259 6.96141 62.0118 6.91922 62.0013 6.8946C61.8044 7.08798 61.5934 7.22862 61.3684 7.32707C61.1434 7.422 60.9043 7.47122 60.6511 7.47122C60.2011 7.47122 59.8495 7.34817 59.5893 7.10556C59.3291 6.86296 59.2026 6.55355 59.2026 6.18086C59.2026 5.93474 59.2623 5.71324 59.3784 5.52337C59.4944 5.33 59.6596 5.18232 59.8741 5.08036C60.0851 4.9784 60.391 4.88698 60.7918 4.80963C61.3297 4.70767 61.7059 4.61274 61.9134 4.52835V4.41233C61.9134 4.19082 61.8571 4.0326 61.7481 3.93767C61.6391 3.84274 61.4317 3.79703 61.1293 3.79703C60.9254 3.79703 60.7636 3.83571 60.6476 3.91657C60.5316 3.99744 60.4402 4.13808 60.3699 4.34201M61.9099 5.27726C61.7622 5.32648 61.5266 5.38625 61.2067 5.45305C60.8867 5.52337 60.6758 5.59018 60.5773 5.65347C60.4261 5.75894 60.3523 5.89607 60.3523 6.06132C60.3523 6.22657 60.4121 6.36369 60.5316 6.47972C60.6511 6.59575 60.8058 6.65552 60.9922 6.65552C61.1996 6.65552 61.4 6.58871 61.5864 6.45159C61.727 6.34611 61.8184 6.21954 61.8606 6.06835C61.8923 5.9699 61.9063 5.78356 61.9063 5.50579V5.27726H61.9099Z" fill="#030303"/>
<path d="M68.1481 7.37278H66.9948V5.14717C66.9948 4.67602 66.9702 4.37365 66.921 4.23301C66.8718 4.09589 66.7909 3.98689 66.6819 3.90954C66.5694 3.83219 66.4393 3.79352 66.2811 3.79352C66.0807 3.79352 65.9014 3.84977 65.7432 3.95877C65.5849 4.06776 65.4759 4.21192 65.4162 4.39475C65.3564 4.57406 65.3283 4.90808 65.3283 5.3968V7.36926H64.175V3.01297H65.2474V3.65288C65.6271 3.16064 66.1053 2.91452 66.6854 2.91452C66.9386 2.91452 67.1742 2.96023 67.3816 3.05164C67.5926 3.14306 67.7508 3.25909 67.8598 3.40324C67.9688 3.5474 68.0426 3.70562 68.0848 3.88845C68.127 4.06776 68.1481 4.32794 68.1481 4.66548V7.37629V7.37278Z" fill="#030303"/>
<path d="M73.1166 4.30333L71.9809 4.50726C71.9422 4.27872 71.8543 4.10995 71.7207 3.99393C71.5836 3.8779 71.4078 3.82164 71.1933 3.82164C70.905 3.82164 70.6765 3.92009 70.5077 4.1205C70.3354 4.32091 70.251 4.65141 70.251 5.11552C70.251 5.63237 70.3389 5.99803 70.5112 6.21251C70.6835 6.42698 70.9191 6.53246 71.2109 6.53246C71.4289 6.53246 71.6082 6.46917 71.7488 6.34611C71.8895 6.22305 71.9879 6.00858 72.0442 5.70269L73.1763 5.89607C73.0603 6.41643 72.8318 6.8067 72.4977 7.07392C72.1637 7.34113 71.7172 7.47122 71.1546 7.47122C70.5182 7.47122 70.0084 7.27081 69.6287 6.86648C69.249 6.46214 69.0591 5.90662 69.0591 5.19639C69.0591 4.48616 69.249 3.91657 69.6287 3.51575C70.0084 3.11493 70.5218 2.91452 71.1722 2.91452C71.7031 2.91452 72.125 3.03055 72.438 3.25557C72.7509 3.48411 72.9759 3.83219 73.113 4.29982" fill="#030303"/>
<path d="M73.9923 1.3528H75.1455V2.41814H73.9923V1.3528ZM73.9923 3.01234H75.1455V7.37214H73.9923V3.01234Z" fill="#030303"/>
<path d="M77.1893 4.34201L76.1415 4.15214C76.2575 3.73023 76.4615 3.41731 76.7498 3.2169C77.0381 3.01648 77.4635 2.91452 78.0296 2.91452C78.5429 2.91452 78.9262 2.97429 79.1793 3.09735C79.4325 3.22041 79.6083 3.37511 79.7102 3.56146C79.8122 3.74781 79.8649 4.09237 79.8649 4.59516L79.8544 5.94178C79.8544 6.32502 79.872 6.60629 79.9106 6.78913C79.9493 6.97196 80.0161 7.16533 80.1181 7.37278H78.9789C78.9473 7.29543 78.9121 7.18291 78.8664 7.03173C78.8488 6.96141 78.8348 6.91922 78.8242 6.8946C78.6273 7.08798 78.4163 7.22862 78.1913 7.32707C77.9663 7.422 77.7272 7.47122 77.4741 7.47122C77.024 7.47122 76.6724 7.34817 76.4122 7.10556C76.1521 6.86296 76.0255 6.55355 76.0255 6.18086C76.0255 5.93474 76.0853 5.71324 76.2013 5.52337C76.3173 5.33 76.4826 5.18232 76.697 5.08036C76.908 4.9784 77.2139 4.88698 77.6147 4.80963C78.1527 4.70767 78.5289 4.61274 78.7363 4.52835V4.41233C78.7363 4.19082 78.68 4.0326 78.5711 3.93767C78.4621 3.84274 78.2546 3.79703 77.9522 3.79703C77.7483 3.79703 77.5866 3.83571 77.4706 3.91657C77.3545 3.99744 77.2631 4.13808 77.1928 4.34201M78.7328 5.27726C78.5851 5.32648 78.3495 5.38625 78.0296 5.45305C77.7096 5.52337 77.4987 5.59018 77.4002 5.65347C77.249 5.75894 77.1752 5.89607 77.1752 6.06132C77.1752 6.22657 77.235 6.36369 77.3545 6.47972C77.4741 6.59575 77.6288 6.65552 77.8151 6.65552C78.0226 6.65552 78.223 6.58871 78.4093 6.45159C78.55 6.34611 78.6414 6.21954 78.6836 6.06835C78.7152 5.9699 78.7293 5.78356 78.7293 5.50579V5.27726H78.7328Z" fill="#030303"/>
<path d="M85.0043 7.37214H83.9319V6.73224C83.7526 6.98187 83.5452 7.16822 83.3026 7.28776C83.0599 7.41082 82.8174 7.47059 82.5712 7.47059C82.072 7.47059 81.643 7.27018 81.2844 6.86584C80.9258 6.46151 80.75 5.89895 80.75 5.17818C80.75 4.4574 80.9222 3.87727 81.2703 3.49402C81.6184 3.11078 82.0579 2.9174 82.5888 2.9174C83.0775 2.9174 83.4959 3.12133 83.8546 3.52567V1.3528H85.0078V7.36863L85.0043 7.37214ZM81.9243 5.09731C81.9243 5.56142 81.9876 5.89895 82.1177 6.10639C82.304 6.40877 82.5642 6.55644 82.8982 6.55644C83.1654 6.55644 83.3905 6.44393 83.5768 6.2189C83.7631 5.99388 83.8546 5.65635 83.8546 5.2063C83.8546 4.70703 83.7631 4.34489 83.5838 4.12338C83.4045 3.90188 83.1725 3.79288 82.8912 3.79288C82.6099 3.79288 82.3884 3.90188 82.2021 4.11987C82.0192 4.33786 81.9243 4.66133 81.9243 5.09379" fill="#030303"/>
<path d="M85.8722 5.12959C85.8722 4.74634 85.9672 4.37717 86.1535 4.01854C86.3434 3.65991 86.6106 3.38566 86.9551 3.1958C87.2997 3.00594 87.6865 2.91452 88.1154 2.91452C88.7764 2.91452 89.3144 3.129 89.7363 3.55794C90.1582 3.98689 90.3692 4.52835 90.3692 5.18232C90.3692 5.8363 90.1547 6.3883 89.7292 6.82077C89.3038 7.25323 88.7694 7.47122 88.1224 7.47122C87.7216 7.47122 87.3419 7.37981 86.9798 7.20049C86.6176 7.02118 86.3398 6.75397 86.1535 6.40588C85.9636 6.0578 85.8722 5.63237 85.8722 5.1331M87.0536 5.19287C87.0536 5.62534 87.1556 5.95584 87.363 6.18789C87.5669 6.41643 87.8201 6.53246 88.1224 6.53246C88.4248 6.53246 88.6745 6.41643 88.8784 6.18789C89.0823 5.95936 89.1843 5.62534 89.1843 5.18584C89.1843 4.74634 89.0823 4.42991 88.8784 4.20137C88.6745 3.97283 88.4213 3.8568 88.1224 3.8568C87.8236 3.8568 87.5669 3.97283 87.363 4.20137C87.1591 4.42991 87.0536 4.76392 87.0536 5.19639" fill="#030303"/>
<path d="M93.5777 3.01297H94.6536V3.65288C94.7942 3.43489 94.9806 3.25557 95.2197 3.11845C95.4588 2.98132 95.7225 2.91452 96.0108 2.91452C96.5171 2.91452 96.946 3.11142 97.3011 3.50872C97.6527 3.90603 97.8321 4.45803 97.8321 5.16826C97.8321 5.87849 97.6527 6.46214 97.2976 6.86648C96.9425 7.27081 96.51 7.47123 96.0037 7.47123C95.7647 7.47123 95.5432 7.422 95.3498 7.32707C95.1529 7.23214 94.949 7.06689 94.731 6.83483V9.03232H93.5777V3.01297ZM94.7169 5.11904C94.7169 5.60776 94.8153 5.9699 95.0087 6.20547C95.2021 6.43753 95.4412 6.55707 95.7189 6.55707C95.9967 6.55707 96.2112 6.45159 96.387 6.2336C96.5663 6.01913 96.6542 5.66753 96.6542 5.17529C96.6542 4.71822 96.5628 4.38068 96.38 4.15566C96.1971 3.93415 95.9686 3.82164 95.6979 3.82164C95.4271 3.82164 95.181 3.93064 94.9947 4.14863C94.8083 4.36662 94.7169 4.69009 94.7169 5.11552" fill="#030303"/>
<path d="M98.479 5.12959C98.479 4.74634 98.5739 4.37717 98.7603 4.01854C98.9501 3.65991 99.2173 3.38566 99.5619 3.1958C99.9065 3.00594 100.293 2.91452 100.722 2.91452C101.383 2.91452 101.921 3.129 102.343 3.55794C102.765 3.98689 102.976 4.52835 102.976 5.18232C102.976 5.8363 102.761 6.3883 102.336 6.82077C101.911 7.25323 101.376 7.47122 100.729 7.47122C100.328 7.47122 99.9487 7.37981 99.5865 7.20049C99.2244 7.02118 98.9466 6.75397 98.7603 6.40588C98.5704 6.0578 98.479 5.63237 98.479 5.1331M99.6603 5.19287C99.6603 5.62534 99.7623 5.95584 99.9698 6.18789C100.174 6.41643 100.427 6.53246 100.729 6.53246C101.032 6.53246 101.281 6.41643 101.485 6.18789C101.689 5.95936 101.791 5.62534 101.791 5.18584C101.791 4.74634 101.689 4.42991 101.485 4.20137C101.281 3.97283 101.028 3.8568 100.729 3.8568C100.43 3.8568 100.174 3.97283 99.9698 4.20137C99.7658 4.42991 99.6603 4.76392 99.6603 5.19639" fill="#030303"/>
<path d="M104.983 7.37629H103.83V3.01648H104.902V3.6353C105.085 3.34347 105.25 3.15009 105.398 3.05516C105.545 2.96375 105.711 2.91452 105.897 2.91452C106.161 2.91452 106.414 2.98836 106.656 3.13251L106.298 4.13808C106.104 4.01151 105.922 3.94822 105.756 3.94822C105.591 3.94822 105.458 3.99393 105.345 4.08183C105.232 4.16972 105.145 4.33146 105.081 4.56351C105.018 4.79557 104.986 5.28429 104.986 6.02616V7.37278L104.983 7.37629Z" fill="#030303"/>
<path d="M48.056 11.4402H46.9027V17.456H48.056V11.4402Z" fill="#030303"/>
<path d="M50.0973 14.4392L49.0495 14.2493C49.1655 13.8274 49.3695 13.5145 49.6578 13.3141C49.9461 13.1137 50.3715 13.0117 50.9376 13.0117C51.4509 13.0117 51.8342 13.0715 52.0873 13.1945C52.3405 13.3176 52.5162 13.4723 52.6182 13.6587C52.7202 13.845 52.7729 14.1896 52.7729 14.6924L52.7624 16.039C52.7624 16.4222 52.7799 16.7035 52.8186 16.8863C52.8573 17.0692 52.9241 17.2625 53.0261 17.47H51.8869C51.8552 17.3926 51.8201 17.2801 51.7744 17.1289C51.7568 17.0586 51.7427 17.0164 51.7322 16.9918C51.5353 17.1852 51.3243 17.3258 51.0993 17.4243C50.8743 17.5192 50.6352 17.5684 50.3821 17.5684C49.932 17.5684 49.5804 17.4454 49.3202 17.2028C49.06 16.9602 48.9335 16.6508 48.9335 16.2781C48.9335 16.0319 48.9932 15.8104 49.1093 15.6206C49.2253 15.4272 49.3905 15.2795 49.605 15.1776C49.816 15.0756 50.1219 14.9842 50.5227 14.9068C51.0606 14.8049 51.4368 14.7099 51.6443 14.6256V14.5095C51.6443 14.288 51.588 14.1298 51.479 14.0349C51.37 13.9399 51.1626 13.8942 50.8602 13.8942C50.6563 13.8942 50.4946 13.9364 50.3785 14.0173C50.2625 14.0982 50.1711 14.2388 50.1008 14.4427M51.6408 15.3745C51.4931 15.4237 51.2575 15.4834 50.9376 15.5503C50.6176 15.6206 50.4067 15.6874 50.3082 15.7507C50.157 15.8561 50.0832 15.9933 50.0832 16.1585C50.0832 16.3238 50.143 16.4609 50.2625 16.5769C50.3821 16.6965 50.5368 16.7527 50.7231 16.7527C50.9305 16.7527 51.131 16.6859 51.3173 16.5488C51.4579 16.4433 51.5494 16.3167 51.5915 16.1655C51.6232 16.0671 51.6373 15.8808 51.6373 15.603V15.3745H51.6408Z" fill="#030303"/>
<path d="M56.2485 11.4402H57.4651V14.6995C57.4651 15.2163 57.4791 15.5503 57.5108 15.705C57.5635 15.9512 57.6866 16.1481 57.8835 16.2992C58.0804 16.4469 58.3476 16.5243 58.6851 16.5243C59.0226 16.5243 59.2899 16.454 59.4656 16.3133C59.6414 16.1727 59.7469 16.0004 59.7821 15.7929C59.8172 15.589 59.8348 15.248 59.8348 14.7698V11.4402H61.0514V14.601C61.0514 15.3218 61.0197 15.8351 60.9529 16.1305C60.8861 16.4293 60.7666 16.679 60.5908 16.8864C60.415 17.0903 60.1794 17.2556 59.8841 17.3787C59.5887 17.5017 59.2019 17.5615 58.7273 17.5615C58.1542 17.5615 57.7182 17.4947 57.4194 17.3611C57.1205 17.2275 56.8884 17.0552 56.7162 16.8442C56.5439 16.6333 56.4314 16.4082 56.3751 16.1762C56.2942 15.8316 56.2556 15.3218 56.2556 14.6503V11.4402H56.2485Z" fill="#030303"/>
<path d="M66.2868 17.4735H65.1335V15.2479C65.1335 14.7767 65.1089 14.4744 65.0597 14.3337C65.0105 14.1966 64.9296 14.0876 64.8206 14.0103C64.7081 13.9329 64.578 13.8942 64.4198 13.8942C64.2194 13.8942 64.0401 13.9505 63.8818 14.0595C63.7236 14.1685 63.6146 14.3126 63.5549 14.4955C63.4951 14.6748 63.467 15.0088 63.467 15.4975V17.47H62.3137V13.1102H63.3861V13.7501C63.7658 13.2578 64.244 13.0117 64.8241 13.0117C65.0773 13.0117 65.3129 13.0574 65.5203 13.1488C65.7313 13.2403 65.8895 13.3563 65.9985 13.5004C66.1075 13.6446 66.1813 13.8028 66.2235 13.9856C66.2657 14.165 66.2868 14.4251 66.2868 14.7627V17.4735Z" fill="#030303"/>
<path d="M67.4532 11.4402H68.6064V12.5055H67.4532V11.4402ZM67.4532 13.0997H68.6064V17.4595H67.4532V13.0997Z" fill="#030303"/>
<path d="M69.5232 15.2201C69.5232 14.8368 69.6181 14.4677 69.808 14.109C69.9979 13.7504 70.2651 13.4761 70.6096 13.2898C70.9542 13.0999 71.341 13.005 71.7699 13.005C72.4309 13.005 72.9689 13.2195 73.3908 13.6484C73.8127 14.0774 74.0237 14.6188 74.0237 15.2728C74.0237 15.9268 73.8127 16.4788 73.3837 16.9113C72.9583 17.3437 72.4239 17.5617 71.7769 17.5617C71.3761 17.5617 70.9964 17.4703 70.6343 17.291C70.2721 17.1117 69.9943 16.8444 69.808 16.4964C69.6181 16.1483 69.5232 15.7229 69.5232 15.2236M70.7046 15.2834C70.7046 15.7158 70.8065 16.0463 71.014 16.2784C71.2179 16.5069 71.4711 16.6229 71.7734 16.6229C72.0758 16.6229 72.3254 16.5069 72.5294 16.2784C72.7333 16.0498 72.8353 15.7158 72.8353 15.2763C72.8353 14.8368 72.7333 14.5204 72.5294 14.2919C72.3254 14.0633 72.0723 13.9473 71.7734 13.9473C71.4746 13.9473 71.2179 14.0633 71.014 14.2919C70.8101 14.5204 70.7046 14.8509 70.7046 15.2834ZM71.1898 12.569L71.7559 11.3419H73.0497L71.9211 12.569H71.1898Z" fill="#030303"/>
<path d="M78.8911 17.4735H77.7379V15.2479C77.7379 14.7767 77.7132 14.4744 77.664 14.3337C77.6148 14.1966 77.5339 14.0876 77.4249 14.0103C77.3124 13.9329 77.1823 13.8942 77.0241 13.8942C76.8237 13.8942 76.6444 13.9505 76.4862 14.0595C76.3279 14.1685 76.2189 14.3126 76.1592 14.4955C76.0994 14.6748 76.0713 15.0088 76.0713 15.4975V17.47H74.918V13.1102H75.9904V13.7501C76.3701 13.2578 76.8483 13.0117 77.4284 13.0117C77.6816 13.0117 77.9172 13.0574 78.1246 13.1488C78.3356 13.2403 78.4938 13.3563 78.6028 13.5004C78.7118 13.6446 78.7856 13.8028 78.8278 13.9856C78.87 14.165 78.8911 14.4251 78.8911 14.7627V17.4735Z" fill="#030303"/>
<path d="M82.4025 17.4595V11.4402H86.8643V12.4598H83.6191V13.7924H86.6393V14.8085H83.6191V16.4434H86.9803V17.4595H82.4025Z" fill="#030303"/>
<path d="M90.8752 17.4634V16.8095C90.717 17.0415 90.506 17.2244 90.2493 17.358C89.9891 17.4916 89.7184 17.5584 89.4301 17.5584C89.1418 17.5584 88.8746 17.4951 88.6425 17.365C88.4105 17.2384 88.2417 17.0556 88.1362 16.8235C88.0307 16.5915 87.9815 16.268 87.9815 15.8602V13.1001H89.1348V15.1042C89.1348 15.716 89.1559 16.0922 89.1981 16.2329C89.2402 16.37 89.3176 16.479 89.4301 16.5598C89.5426 16.6407 89.6833 16.6794 89.8555 16.6794C90.0524 16.6794 90.2282 16.6266 90.3865 16.5176C90.5412 16.4087 90.6502 16.275 90.7064 16.1168C90.7627 15.9551 90.7908 15.5648 90.7908 14.939V13.1001H91.944V17.4599H90.8717L90.8752 17.4634Z" fill="#030303"/>
<path d="M94.2423 17.4735H93.0891V13.1137H94.1614V13.7325C94.3443 13.4407 94.5095 13.2473 94.6572 13.1524C94.8049 13.0609 94.9701 13.0117 95.1565 13.0117C95.4202 13.0117 95.6733 13.0856 95.9159 13.2297L95.5573 14.2353C95.3639 14.1087 95.1811 14.0454 95.0158 14.0454C94.8506 14.0454 94.717 14.0911 94.6044 14.179C94.4919 14.2669 94.404 14.4287 94.3408 14.6607C94.2775 14.8928 94.2458 15.3815 94.2458 16.1234V17.47L94.2423 17.4735Z" fill="#030303"/>
<path d="M96.1462 15.2268C96.1462 14.8435 96.2412 14.4744 96.4275 14.1157C96.6174 13.7571 96.8846 13.4829 97.2291 13.293C97.5737 13.1031 97.9605 13.0117 98.3894 13.0117C99.0504 13.0117 99.5884 13.2262 100.01 13.6551C100.432 14.0841 100.643 14.6256 100.643 15.2795C100.643 15.9335 100.429 16.4855 100.003 16.918C99.5778 17.3504 99.0434 17.5684 98.3964 17.5684C97.9956 17.5684 97.6159 17.477 97.2537 17.2977C96.8916 17.1184 96.6138 16.8512 96.4275 16.5031C96.2376 16.155 96.1462 15.7296 96.1462 15.2303M97.3276 15.2901C97.3276 15.7225 97.4296 16.053 97.637 16.2851C97.8409 16.5136 98.0941 16.6297 98.3964 16.6297C98.6988 16.6297 98.9485 16.5136 99.1524 16.2851C99.3563 16.0566 99.4583 15.7225 99.4583 15.283C99.4583 14.8435 99.3563 14.5271 99.1524 14.2986C98.9485 14.07 98.6953 13.954 98.3964 13.954C98.0976 13.954 97.8409 14.07 97.637 14.2986C97.4331 14.5271 97.3276 14.8611 97.3276 15.2936" fill="#030303"/>
<path d="M101.512 13.1102H102.587V13.7501C102.728 13.5321 102.914 13.3528 103.154 13.2156C103.393 13.0785 103.656 13.0117 103.945 13.0117C104.451 13.0117 104.88 13.2086 105.235 13.6059C105.587 14.0032 105.766 14.5552 105.766 15.2655C105.766 15.9757 105.587 16.5593 105.231 16.9637C104.876 17.368 104.444 17.5684 103.938 17.5684C103.699 17.5684 103.477 17.5192 103.284 17.4243C103.087 17.3293 102.883 17.1641 102.665 16.932V19.1295H101.512V13.1137V13.1102ZM102.651 15.2162C102.651 15.705 102.749 16.0671 102.943 16.3027C103.136 16.5347 103.375 16.6543 103.653 16.6543C103.931 16.6543 104.145 16.5488 104.321 16.3308C104.5 16.1163 104.588 15.7647 104.588 15.2725C104.588 14.8154 104.497 14.4779 104.314 14.2529C104.131 14.0314 103.902 13.9188 103.632 13.9188C103.361 13.9188 103.115 14.0278 102.929 14.2458C102.742 14.4638 102.651 14.7873 102.651 15.2127" fill="#030303"/>
<path d="M109.201 16.0776L110.351 16.271C110.203 16.6929 109.971 17.0129 109.651 17.2344C109.331 17.4559 108.934 17.5649 108.456 17.5649C107.696 17.5649 107.137 17.3153 106.772 16.823C106.483 16.4257 106.339 15.9265 106.339 15.3217C106.339 14.6009 106.529 14.0349 106.905 13.6235C107.281 13.2156 107.76 13.0117 108.34 13.0117C108.987 13.0117 109.5 13.2262 109.876 13.6551C110.252 14.0841 110.432 14.7381 110.414 15.6241H107.524C107.531 15.9651 107.626 16.2324 107.802 16.4222C107.978 16.6121 108.203 16.707 108.466 16.707C108.646 16.707 108.8 16.6578 108.923 16.5593C109.046 16.4609 109.138 16.3027 109.201 16.0847M109.268 14.9139C109.261 14.5798 109.173 14.3267 109.008 14.1509C108.843 13.9786 108.642 13.8907 108.41 13.8907C108.157 13.8907 107.949 13.9821 107.788 14.165C107.623 14.3478 107.542 14.5974 107.545 14.9103H109.268V14.9139Z" fill="#030303"/>
<path d="M112.215 14.4392L111.167 14.2493C111.283 13.8274 111.487 13.5145 111.776 13.3141C112.064 13.1137 112.489 13.0117 113.055 13.0117C113.569 13.0117 113.952 13.0715 114.205 13.1945C114.458 13.3176 114.634 13.4723 114.736 13.6587C114.838 13.845 114.891 14.1896 114.891 14.6924L114.88 16.039C114.88 16.4222 114.898 16.7035 114.937 16.8863C114.975 17.0692 115.042 17.2625 115.144 17.47H114.005C113.973 17.3926 113.938 17.2801 113.892 17.1289C113.875 17.0586 113.861 17.0164 113.85 16.9918C113.653 17.1852 113.442 17.3258 113.217 17.4243C112.992 17.5192 112.753 17.5684 112.5 17.5684C112.05 17.5684 111.698 17.4454 111.438 17.2028C111.178 16.9602 111.051 16.6508 111.051 16.2781C111.051 16.0319 111.111 15.8104 111.227 15.6206C111.343 15.4272 111.508 15.2795 111.723 15.1776C111.934 15.0756 112.24 14.9842 112.641 14.9068C113.179 14.8049 113.555 14.7099 113.762 14.6256V14.5095C113.762 14.288 113.706 14.1298 113.597 14.0349C113.488 13.9399 113.281 13.8942 112.978 13.8942C112.774 13.8942 112.612 13.9364 112.496 14.0173C112.38 14.0982 112.289 14.2388 112.219 14.4427M113.759 15.3745C113.611 15.4237 113.375 15.4834 113.055 15.5503C112.736 15.6206 112.525 15.6874 112.426 15.7507C112.275 15.8561 112.201 15.9933 112.201 16.1585C112.201 16.3238 112.261 16.4609 112.38 16.5769C112.5 16.6965 112.655 16.7527 112.841 16.7527C113.048 16.7527 113.249 16.6859 113.435 16.5488C113.576 16.4433 113.667 16.3167 113.709 16.1655C113.741 16.0671 113.755 15.8808 113.755 15.603V15.3745H113.759Z" fill="#030303"/>
<path d="M46.9126 28.2831V23.0795H47.6158L50.3477 27.165V23.0795H51.0087V28.2831H50.302L47.57 24.194V28.2831H46.9126Z" fill="#030303"/>
<path d="M54.6669 27.0754L55.3279 27.1563C55.2224 27.543 55.0326 27.8419 54.7513 28.0528C54.47 28.2673 54.1114 28.3728 53.6719 28.3728C53.1199 28.3728 52.6839 28.204 52.3604 27.863C52.0369 27.5219 51.8752 27.0473 51.8752 26.4355C51.8752 25.8237 52.0369 25.3104 52.3639 24.9588C52.6909 24.6107 53.1128 24.4349 53.6332 24.4349C54.1536 24.4349 54.5474 24.6072 54.8673 24.9482C55.1873 25.2893 55.3455 25.7745 55.3455 26.3968C55.3455 26.4355 55.3455 26.4918 55.342 26.5691H52.5327C52.5573 26.984 52.6733 27.3004 52.8843 27.5184C53.0953 27.7399 53.359 27.8489 53.6719 27.8489C53.9074 27.8489 54.1043 27.7856 54.2696 27.6626C54.4348 27.5395 54.5649 27.3426 54.6634 27.0754M52.5679 26.0417H54.6704C54.6423 25.7253 54.5614 25.4862 54.4278 25.328C54.2239 25.0818 53.9602 24.9588 53.6367 24.9588C53.3449 24.9588 53.0953 25.0572 52.8984 25.2541C52.698 25.451 52.589 25.7112 52.5679 26.0417Z" fill="#030303"/>
<path d="M55.6985 28.2924L57.0768 26.334L55.804 24.5233H56.6021L57.1787 25.4058C57.2877 25.5746 57.3756 25.7152 57.4424 25.8277C57.5479 25.673 57.6428 25.5324 57.7307 25.4129L58.3671 24.5233H59.1301L57.8292 26.2989L59.232 28.2924H58.448L57.6745 27.1216L57.467 26.8052L56.4755 28.2924H55.702H55.6985Z" fill="#030303"/>
<path d="M61.1552 27.7118L61.2466 28.2744C61.0673 28.3131 60.9056 28.3306 60.7649 28.3306C60.5329 28.3306 60.3536 28.2955 60.227 28.2216C60.1004 28.1478 60.009 28.0529 59.9563 27.9333C59.9035 27.8138 59.8789 27.5642 59.8789 27.1809V25.0116H59.4113V24.5158H59.8789V23.5806L60.5153 23.1973V24.5123H61.1587V25.008H60.5153V27.2126C60.5153 27.3954 60.5258 27.5114 60.5505 27.5642C60.5716 27.6169 60.6102 27.6591 60.6594 27.6872C60.7087 27.7189 60.7825 27.7329 60.8774 27.7329C60.9478 27.7329 61.0427 27.7259 61.1587 27.7083" fill="#030303"/>
<path d="M64.294 26.2433V25.6315H66.4985V27.5583C66.1609 27.829 65.8129 28.0294 65.4507 28.1666C65.0921 28.3037 64.7229 28.3705 64.3432 28.3705C63.8334 28.3705 63.3693 28.2615 62.9509 28.0435C62.5325 27.8255 62.2195 27.5091 62.0051 27.0942C61.7906 26.6793 61.6851 26.2187 61.6851 25.7054C61.6851 25.192 61.7906 24.7279 62.0016 24.2884C62.2125 23.8489 62.5184 23.5255 62.9157 23.311C63.313 23.1 63.7701 22.9911 64.2869 22.9911C64.6631 22.9911 65.0042 23.0508 65.3066 23.1739C65.6125 23.2969 65.848 23.4657 66.0203 23.6837C66.1926 23.9017 66.3227 24.1865 66.4141 24.5346L65.7918 24.7033C65.7144 24.4396 65.616 24.2287 65.4999 24.0775C65.3839 23.9263 65.2187 23.8032 65.0042 23.7153C64.7897 23.6239 64.5506 23.5782 64.2869 23.5782C63.974 23.5782 63.6998 23.6274 63.4712 23.7224C63.2427 23.8173 63.0563 23.9439 62.9157 24.0986C62.7751 24.2533 62.6661 24.4256 62.5887 24.6119C62.4551 24.9354 62.3918 25.2835 62.3918 25.6597C62.3918 26.1238 62.4727 26.5105 62.6309 26.8235C62.7891 27.1364 63.0212 27.3684 63.3271 27.5196C63.633 27.6708 63.9564 27.7482 64.2975 27.7482C64.5963 27.7482 64.8882 27.6919 65.1694 27.5759C65.4542 27.4599 65.6687 27.3403 65.8164 27.2102V26.2398H64.2869L64.294 26.2433Z" fill="#030303"/>
<path d="M70.0116 27.0754L70.6726 27.1563C70.5671 27.543 70.3773 27.8419 70.096 28.0528C69.8147 28.2673 69.4561 28.3728 69.0166 28.3728C68.4646 28.3728 68.0286 28.204 67.7051 27.863C67.3816 27.5219 67.2199 27.0473 67.2199 26.4355C67.2199 25.8237 67.3816 25.3104 67.7086 24.9588C68.0356 24.6107 68.4575 24.4349 68.9779 24.4349C69.4983 24.4349 69.892 24.6072 70.212 24.9482C70.532 25.2893 70.6902 25.7745 70.6902 26.3968C70.6902 26.4355 70.6902 26.4918 70.6867 26.5691H67.8774C67.902 26.984 68.018 27.3004 68.229 27.5184C68.44 27.7399 68.7037 27.8489 69.0166 27.8489C69.2521 27.8489 69.449 27.7856 69.6143 27.6626C69.7795 27.5395 69.9096 27.3426 70.0081 27.0754M67.9161 26.0417H70.0186C69.9905 25.7253 69.9096 25.4862 69.776 25.328C69.5721 25.0818 69.3084 24.9588 68.9849 24.9588C68.6931 24.9588 68.4435 25.0572 68.2466 25.2541C68.0462 25.451 67.9372 25.7112 67.9161 26.0417Z" fill="#030303"/>
<path d="M71.4705 28.2919V24.5228H72.0471V25.0572C72.3248 24.6424 72.7221 24.4349 73.246 24.4349C73.4746 24.4349 73.682 24.4771 73.8719 24.558C74.0617 24.6388 74.2059 24.7478 74.3008 24.8779C74.3957 25.008 74.4625 25.1662 74.5012 25.3491C74.5258 25.4686 74.5364 25.6725 74.5364 25.9714V28.2884H73.8965V25.996C73.8965 25.7358 73.8719 25.5424 73.8226 25.4124C73.7734 25.2823 73.6855 25.1803 73.5589 25.1029C73.4324 25.0256 73.2847 24.9869 73.1124 24.9869C72.8417 24.9869 72.6061 25.0748 72.4092 25.2471C72.2123 25.4194 72.1139 25.7464 72.1139 26.2316V28.2884H71.474L71.4705 28.2919Z" fill="#030303"/>
<path d="M78.0952 27.0754L78.7562 27.1563C78.6508 27.543 78.4609 27.8419 78.1796 28.0528C77.8984 28.2673 77.5397 28.3728 77.1002 28.3728C76.5482 28.3728 76.1122 28.204 75.7888 27.863C75.4653 27.5219 75.3036 27.0473 75.3036 26.4355C75.3036 25.8237 75.4653 25.3104 75.7923 24.9588C76.1193 24.6107 76.5412 24.4349 77.0615 24.4349C77.5819 24.4349 77.9757 24.6072 78.2957 24.9482C78.6156 25.2893 78.7738 25.7745 78.7738 26.3968C78.7738 26.4355 78.7738 26.4918 78.7703 26.5691H75.961C75.9857 26.984 76.1017 27.3004 76.3126 27.5184C76.5236 27.7399 76.7873 27.8489 77.1002 27.8489C77.3358 27.8489 77.5327 27.7856 77.6979 27.6626C77.8632 27.5395 77.9933 27.3426 78.0917 27.0754M75.9997 26.0417H78.1023C78.0741 25.7253 77.9933 25.4862 77.8597 25.328C77.6557 25.0818 77.392 24.9588 77.0686 24.9588C76.7768 24.9588 76.5271 25.0572 76.3302 25.2541C76.1298 25.451 76.0208 25.7112 75.9997 26.0417Z" fill="#030303"/>
<path d="M79.5492 28.2884V24.5193H80.1223V25.0889C80.27 24.8217 80.4036 24.6459 80.5302 24.5615C80.6567 24.4771 80.7903 24.4349 80.9415 24.4349C81.156 24.4349 81.374 24.5052 81.599 24.6388L81.3775 25.2295C81.2228 25.1381 81.0646 25.0924 80.9099 25.0924C80.7692 25.0924 80.6462 25.1346 80.5337 25.219C80.4212 25.3034 80.3438 25.4194 80.2946 25.5671C80.2243 25.7956 80.1891 26.0417 80.1891 26.3124V28.2849H79.5492V28.2884Z" fill="#030303"/>
<path d="M84.4338 27.8243C84.1982 28.0247 83.9697 28.1654 83.7517 28.2497C83.5337 28.3306 83.2981 28.3728 83.0485 28.3728C82.6336 28.3728 82.3172 28.2708 82.0957 28.0704C81.8742 27.8665 81.7616 27.6098 81.7616 27.2934C81.7616 27.1106 81.8038 26.9418 81.8882 26.7871C81.9726 26.6359 82.0816 26.5129 82.2187 26.4214C82.3558 26.33 82.507 26.2597 82.6793 26.2105C82.8059 26.1788 82.9922 26.1472 83.2454 26.1155C83.7622 26.0558 84.142 25.9819 84.3846 25.894C84.3846 25.8061 84.3881 25.7499 84.3881 25.7288C84.3881 25.4686 84.3283 25.2858 84.2052 25.1803C84.0435 25.0361 83.8009 24.9623 83.4774 24.9623C83.1786 24.9623 82.9571 25.015 82.8129 25.1205C82.6688 25.226 82.5633 25.4124 82.4965 25.6796L81.8706 25.5952C81.9269 25.328 82.0218 25.1135 82.1519 24.9482C82.282 24.783 82.4684 24.6564 82.7145 24.5685C82.9606 24.4806 83.2454 24.4349 83.5689 24.4349C83.8923 24.4349 84.1525 24.4736 84.3529 24.5474C84.5533 24.6248 84.701 24.7197 84.7959 24.8322C84.8909 24.9482 84.9577 25.0924 84.9963 25.2682C85.0174 25.3772 85.028 25.5741 85.028 25.8554V26.7062C85.028 27.3004 85.042 27.6766 85.0702 27.8313C85.0983 27.9896 85.151 28.1407 85.2319 28.2849H84.5639C84.4971 28.1513 84.4549 27.9966 84.4373 27.8208M84.381 26.3968C84.149 26.4918 83.8009 26.5726 83.3368 26.6394C83.0731 26.6781 82.8903 26.7203 82.7813 26.766C82.6723 26.8152 82.5879 26.882 82.5281 26.9734C82.4684 27.0649 82.4402 27.1668 82.4402 27.2758C82.4402 27.4446 82.5035 27.5887 82.6336 27.7013C82.7637 27.8138 82.95 27.87 83.1997 27.87C83.4493 27.87 83.6638 27.8173 83.8572 27.7083C84.047 27.5993 84.1877 27.4516 84.2791 27.2653C84.3494 27.1211 84.381 26.9066 84.381 26.6254V26.3898V26.3968Z" fill="#030303"/>
<path d="M87.4074 27.7118L87.4988 28.2744C87.3195 28.3131 87.1578 28.3306 87.0171 28.3306C86.7851 28.3306 86.6058 28.2955 86.4792 28.2216C86.3526 28.1478 86.2612 28.0529 86.2085 27.9333C86.1557 27.8138 86.1311 27.5642 86.1311 27.1809V25.0116H85.6635V24.5158H86.1311V23.5806L86.7675 23.1973V24.5123H87.4109V25.008H86.7675V27.2126C86.7675 27.3954 86.7781 27.5114 86.8027 27.5642C86.8238 27.6169 86.8624 27.6591 86.9117 27.6872C86.9609 27.7189 87.0347 27.7329 87.1297 27.7329C87.2 27.7329 87.2949 27.7259 87.4109 27.7083" fill="#030303"/>
<path d="M88.038 23.0795H88.6779V23.8143H88.038V23.0795ZM88.038 24.5105H88.6779V28.2796H88.038V24.5105Z" fill="#030303"/>
<path d="M89.4103 26.4039C89.4103 25.7077 89.6037 25.1908 89.9905 24.8533C90.3139 24.5755 90.7112 24.4349 91.1753 24.4349C91.6922 24.4349 92.1176 24.6037 92.4446 24.9447C92.7716 25.2858 92.9368 25.7534 92.9368 26.3511C92.9368 26.8363 92.863 27.216 92.7189 27.4938C92.5747 27.7716 92.3602 27.986 92.0825 28.1407C91.8047 28.2955 91.5023 28.3728 91.1718 28.3728C90.6444 28.3728 90.219 28.204 89.892 27.8665C89.5685 27.529 89.4033 27.0402 89.4033 26.4039M90.0678 26.4039C90.0678 26.8855 90.1733 27.2477 90.3842 27.4868C90.5952 27.7259 90.8589 27.8454 91.1789 27.8454C91.4988 27.8454 91.759 27.7259 91.97 27.4833C92.1809 27.2407 92.2864 26.875 92.2864 26.3792C92.2864 25.9116 92.1809 25.56 91.97 25.3209C91.759 25.0818 91.4953 24.9623 91.1789 24.9623C90.8624 24.9623 90.5952 25.0818 90.3842 25.3209C90.1733 25.56 90.0678 25.9222 90.0678 26.4039Z" fill="#030303"/>
<path d="M93.6882 28.2919V24.5228H94.2648V25.0572C94.5426 24.6424 94.9399 24.4349 95.4638 24.4349C95.6923 24.4349 95.8998 24.4771 96.0896 24.558C96.2795 24.6388 96.4236 24.7478 96.5186 24.8779C96.6135 25.008 96.6803 25.1662 96.719 25.3491C96.7436 25.4686 96.7541 25.6725 96.7541 25.9714V28.2884H96.1142V25.996C96.1142 25.7358 96.0896 25.5424 96.0404 25.4124C95.9912 25.2823 95.9033 25.1803 95.7767 25.1029C95.6501 25.0256 95.5025 24.9869 95.3302 24.9869C95.0594 24.9869 94.8239 25.0748 94.627 25.2471C94.4301 25.4194 94.3316 25.7464 94.3316 26.2316V28.2884H93.6917L93.6882 28.2919Z" fill="#030303"/>
<path d="M97.8283 28.2831V23.0795H101.59V23.6947H98.5174V25.2875H101.393V25.8993H98.5174V27.6678H101.71V28.2831H97.8283Z" fill="#030303"/>
<path d="M106.073 23.083H106.762V26.0891C106.762 26.613 106.702 27.0279 106.582 27.3338C106.463 27.6397 106.252 27.8928 105.943 28.0827C105.633 28.2761 105.229 28.371 104.726 28.371C104.223 28.371 103.84 28.2866 103.531 28.1178C103.221 27.9491 103 27.7065 102.866 27.39C102.732 27.0736 102.666 26.6376 102.666 26.0856V23.0795H103.355V26.0821C103.355 26.5357 103.397 26.8662 103.481 27.0806C103.566 27.2951 103.71 27.4604 103.914 27.5764C104.118 27.6924 104.367 27.7487 104.663 27.7487C105.169 27.7487 105.528 27.6326 105.746 27.4041C105.96 27.1756 106.069 26.7325 106.069 26.0821V23.0795L106.073 23.083Z" fill="#030303"/>
</svg>
