<svg width="66" height="22" viewBox="0 0 66 22" fill="none" xmlns="http://www.w3.org/2000/svg">
<path fill-rule="evenodd" clip-rule="evenodd" d="M9.48391 7.51266C8.90729 7.12942 8.19354 6.90791 7.04382 6.90791C5.61633 6.90791 4.41036 7.62165 3.75287 8.58151V7.21028H0.929535V21.4359H3.75287V13.3843C3.75287 10.9407 4.79711 9.68201 6.57971 9.68201C7.13875 9.68201 7.58528 9.74882 7.98258 9.87539C8.32011 9.07375 8.72446 8.49361 9.48743 7.51617" fill="#030303"/>
<path fill-rule="evenodd" clip-rule="evenodd" d="M20.9635 13.7003C20.9635 9.80464 18.9876 6.48556 14.902 6.48556C11.1716 6.48556 8.59082 9.11902 8.59082 13.9992C8.59082 18.8794 11.4458 21.4882 14.8176 21.4882C17.0116 21.4882 18.5235 20.8026 19.7822 19.5966L18.1086 17.7859C17.1487 18.4996 16.1889 18.9391 14.9794 18.9391C13.2249 18.9391 11.6603 17.7613 11.3579 14.9907H20.8756C20.9002 14.6883 20.9565 14.2242 20.9565 13.7003M18.1086 12.6561H11.4142C11.6603 10.3531 12.8135 9.03816 14.7051 9.03816C17.0362 9.03816 17.9679 10.6836 18.105 12.6561" fill="#030303"/>
<path fill-rule="evenodd" clip-rule="evenodd" d="M34.3716 21.4444V0.749406L31.5728 2.2015V8.13647C30.7747 7.25748 29.4035 6.49099 27.9514 6.49099C24.9628 6.49099 22.2731 8.82208 22.2731 13.7585C22.2731 19.2434 24.7132 21.4937 27.8143 21.4937C29.3226 21.4937 30.5286 20.7799 31.5728 19.8201V21.4444H34.3716ZM31.601 17.053C30.8591 17.9847 29.6813 18.8918 28.3346 18.8918C26.2497 18.8918 25.0964 17.2991 25.0964 13.6776C25.0964 10.6328 26.1934 9.09633 28.2256 9.09633C29.6531 9.09633 30.9681 10.1406 31.601 10.9879V17.0495V17.053Z" fill="#030303"/>
<path fill-rule="evenodd" clip-rule="evenodd" d="M53.5377 13.7003C53.5377 9.80464 51.5617 6.48556 47.4762 6.48556C43.7457 6.48556 41.1685 9.11902 41.1685 13.9992C41.1685 18.8794 44.02 21.4882 47.3953 21.4882C49.5893 21.4882 51.0976 20.8026 52.3599 19.5966L50.6863 17.7859C49.7264 18.4996 48.7665 18.9391 47.557 18.9391C45.8026 18.9391 44.238 17.7613 43.9356 14.9907H53.4533C53.4779 14.6883 53.5377 14.2242 53.5377 13.7003ZM50.6863 12.6561H43.9918C44.238 10.3531 45.3912 9.03816 47.2828 9.03816C49.6139 9.03816 50.5456 10.6836 50.6827 12.6561" fill="#030303"/>
<path fill-rule="evenodd" clip-rule="evenodd" d="M65.0779 17.2374C65.0779 14.5231 63.4324 13.6441 60.2223 12.41C58.0565 11.5591 57.5608 11.0387 57.5608 10.325C57.5608 9.55852 58.1655 9.01003 59.5332 9.01003C60.9009 9.01003 62.0858 9.42139 63.2637 10.2441L64.4978 8.07829C63.2074 7.14656 61.4248 6.48556 59.6141 6.48556C56.7345 6.48556 54.7058 7.82866 54.7058 10.4094C54.7058 12.6877 55.8309 13.7285 58.932 14.9344C61.017 15.7291 62.2792 16.2494 62.2792 17.3464C62.2792 18.3625 61.4283 18.9356 59.6457 18.9356C58.3026 18.9356 56.7943 18.4434 55.4512 17.5081L54.1608 19.6458C55.6129 20.7147 57.726 21.4847 59.6739 21.4847C62.4972 21.4847 65.0779 20.4158 65.0779 17.2339" fill="#030303"/>
<path fill-rule="evenodd" clip-rule="evenodd" d="M35.948 19.0403C35.948 17.7113 37.0274 16.6319 38.3565 16.6319C39.6855 16.6319 40.7649 17.7113 40.7649 19.0403C40.7649 20.3693 39.6855 21.4488 38.3565 21.4488C37.0274 21.4488 35.948 20.3693 35.948 19.0403Z" fill="#030303"/>
</svg>
