<svg width="1408" height="108" viewBox="0 0 1408 108" fill="none" xmlns="http://www.w3.org/2000/svg">
<g clip-path="url(#clip0_2174_489)">
<path d="M0 106.162V35.3652H11.9736V95.7674H49.8858V106.162H0Z" fill="black"/>
<path d="M109.098 86.4889H79.6866L72.7648 106.161H60.4512L85.6127 35.3887H103.269L128.65 106.161H116.02L109.074 86.4889H109.098ZM105.747 76.7497L94.5746 44.5449L83.1597 76.7497H105.747Z" fill="black"/>
<path d="M139.238 106.158V35.2637H169.427C184.752 35.2637 196.605 40.8497 196.605 56.6121C196.605 67.2256 190.679 73.1517 182.955 75.9447C186.647 78.7377 189.318 82.988 190.338 88.3554C192.014 97.7546 194.807 103.778 195.925 106.134H182.955C180.939 103.001 180.381 99.3089 178.486 90.8084C176.811 82.8665 173.896 77.9362 168.091 77.9362H151.212V106.109H139.238V106.158ZM151.212 68.4642H167.193C175.693 68.4642 184.631 66.5698 184.631 56.8307C184.631 47.0915 177.369 45.3186 169.087 45.3186H151.188V68.4642H151.212Z" fill="black"/>
<path d="M255.817 86.4889H226.405L219.484 106.161H207.17L232.331 35.3887H249.988L275.368 106.161H262.739L255.793 86.4889H255.817ZM252.465 76.7497L241.293 44.5449L229.878 76.7497H252.465Z" fill="black"/>
<path d="M358.698 34.1484C369.87 34.1484 380.167 38.5201 387.211 45.8791L378.832 53.9182C374.144 48.3321 366.858 44.8591 358.698 44.8591C343.931 44.8591 332.419 55.7154 332.419 70.5792C332.419 85.4429 343.712 96.5179 358.479 96.5179C371.351 96.5179 380.726 88.3574 381.066 77.4039H356.463V68.2476H391.68V106.16H381.382V93.1905C376.792 101.91 367.732 107.277 355.322 107.277C336.985 107.277 320.445 92.1948 320.445 70.6035C320.445 49.0122 337.665 34.1484 358.698 34.1484Z" fill="black"/>
<path d="M440.496 34.1484C461.626 34.1484 478.627 49.0122 478.627 70.7249C478.627 92.4376 461.626 107.301 440.496 107.301C419.367 107.301 402.244 92.4376 402.244 70.7249C402.244 49.0122 419.585 34.1484 440.496 34.1484ZM466.654 70.7249C466.654 56.0798 455.36 44.8834 440.496 44.8834C425.633 44.8834 414.218 55.9583 414.218 70.7249C414.218 85.4915 425.633 96.5665 440.496 96.5665C455.36 96.5665 466.654 85.4915 466.654 70.7249Z" fill="black"/>
<path d="M489.215 106.158V35.2637H499.61L539.319 85.5867V35.2637H551.269V106.158H540.874L501.188 55.8349V106.158H489.215Z" fill="black"/>
<path d="M561.859 106.158V96.9774L607.155 45.6586H562.515V35.2637H622.917V44.3228L578.18 95.763H622.237V106.158H561.859Z" fill="black"/>
<path d="M678.851 86.4864H649.44L642.518 106.159H630.229L655.39 35.3862H673.047L698.427 106.159H685.798L678.876 86.4864H678.851ZM675.5 76.7472L664.328 44.5425L652.913 76.7472H675.5ZM658.402 28.0029L672.27 14.9121H685.239L667.898 28.0029H658.402Z" fill="black"/>
<path d="M708.994 106.162V35.3652H720.968V95.7674H758.88V106.162H708.994Z" fill="black"/>
<path d="M769.439 106.162V35.3652H820.783V45.5901H781.583V65.287H820.103V75.2205H781.583V96.0346H822.215V106.162H769.439Z" fill="black"/>
<path d="M833.025 106.158V96.9774L878.321 45.6586H833.705V35.2637H894.083V44.3228L849.346 95.763H893.403V106.158H833.025Z" fill="black"/>
<path d="M949.314 69.0467C949.314 88.2579 959.199 100.96 973.893 100.96C987.154 100.96 998.18 95.3012 1001.29 86.7035L1002.43 87.1407C998.034 99.2842 985.769 107.323 971.634 107.323C952.156 107.323 939.162 93.6253 939.162 73.0055C939.162 49.5684 953.419 33.8789 974.889 33.8789C989.849 33.8789 1001.02 40.655 1004.11 57.8746H950.504C949.727 61.2748 949.314 65.0393 949.314 69.0467ZM974.306 36.1376C963.061 36.1376 954.609 43.5452 951.087 55.5916L992.812 55.1302C989.801 41.4808 982.903 36.1133 974.281 36.1133" fill="black"/>
<path d="M1056.37 56.1999V53.9412C1056.37 45.8779 1049.23 36.0416 1038.52 35.7258H1038.03C1030.41 35.7258 1025.33 40.8019 1025.33 48.428C1025.33 56.0542 1031.55 63.1218 1043.43 66.9348C1056.42 71.1608 1063.07 79.2241 1063.07 88.1133C1063.07 99.6739 1054.33 107.324 1041.34 107.324C1037.99 107.324 1034.71 106.62 1031.67 105.284C1025.36 103.001 1021.28 101.52 1021.28 101.665V104.629H1018.46V82.1872H1021.28V84.5916C1021.28 91.9506 1026.62 101.253 1035.12 104.434C1037.16 105.114 1039.22 105.503 1041.31 105.503C1049.94 105.503 1055.57 99.7225 1055.57 90.8091C1055.57 84.1544 1050.06 77.8155 1039.18 74.2939C1025.62 69.8979 1018.56 61.3002 1018.56 51.6825C1018.56 40.9476 1026.33 33.9043 1038.03 33.9043C1041.65 33.9043 1045.13 34.6086 1048.24 35.8716H1048.36C1053.14 37.8388 1056.4 38.5674 1056.4 38.0088V33.9286H1059.21V56.2485H1056.4V56.1999H1056.37Z" fill="black"/>
<path d="M1114.71 40.3917H1092.97L1092.85 87.5574C1092.71 98.5595 1097.37 102.81 1104.29 102.81C1110.07 102.81 1115.58 99.1424 1118.28 93.7749L1119.4 94.3336C1115.58 102.105 1108.4 107.327 1101.33 107.327C1090.59 107.327 1083.38 101.255 1083.38 85.4445V39.1288H1074.2V37.7202L1092.27 18.3633H1092.97V35.3157H1114.71V40.3917Z" fill="black"/>
<path d="M1198.45 102.394L1178.54 107.348H1176.84V88.89C1172.03 100.111 1162.8 107.348 1153.11 107.348C1141.81 107.348 1134.33 97.7305 1134.33 83.3525V40.2428C1134.33 38.4213 1132.2 38.1298 1129.26 38.1298H1125.03V35.3125H1143.95V83.3282C1143.95 93.7717 1149.46 100.718 1157.65 100.718C1165.83 100.718 1173 95.1318 1176.86 86.5584V40.2428C1176.86 38.4213 1174.89 38.1298 1171.78 38.1298H1167.56V35.3125H1186.48V91.2216C1186.48 100.694 1189.56 101.835 1194.25 100.524L1198.48 99.5278V102.345H1198.45V102.394Z" fill="black"/>
<path d="M1285.84 102.395L1265.8 107.349H1264.1V96.2258C1259.24 102.443 1249.87 106.621 1240.37 106.621C1221.16 106.621 1208.46 92.0727 1208.46 70.3114C1208.46 48.5501 1220.46 33.8806 1243.89 33.8806C1251.52 33.8806 1258.93 36.8436 1264.08 41.191V14.2566C1264.08 6.6304 1260.99 5.92607 1256.3 7.33472L1252.08 8.59766V5.78035L1272.12 0H1273.82V88.4053C1273.82 100.282 1276.9 101.666 1281.59 100.549L1285.81 99.5531V102.37L1285.84 102.395ZM1264.1 90.3968V50.4445C1260.07 42.8911 1252.18 36.7465 1245.01 36.7465C1227.35 36.7465 1218.17 49.1815 1218.17 67.6641C1218.17 88.6967 1228.62 102.686 1244.31 102.686C1251.74 102.686 1259.58 98.8002 1264.08 92.8741V90.3968H1264.1Z" fill="black"/>
<path d="M1291.23 41.0924L1311.14 35.3121H1312.84V100.96C1312.84 102.782 1315.37 103.073 1319.2 103.073H1323.43V105.891H1292.63V103.073H1296.86C1300.67 103.073 1303.22 102.806 1303.22 100.96V51.6816C1303.22 42.2096 1300.11 41.2381 1295.45 42.6468L1291.23 43.9097V41.0924ZM1301.81 12.8464C1301.81 9.17906 1304.34 6.62891 1308.03 6.62891C1311.72 6.62891 1314.25 9.15477 1314.25 12.8464C1314.25 16.5381 1311.72 19.0639 1308.03 19.0639C1304.34 19.0639 1301.81 16.5381 1301.81 12.8464Z" fill="black"/>
<path d="M1371.42 33.9043C1393.31 33.9043 1408 48.598 1408 70.6265C1408 92.655 1393.31 107.349 1371.42 107.349C1349.54 107.349 1334.7 92.655 1334.7 70.6265C1334.7 48.598 1349.39 33.9043 1371.42 33.9043ZM1397.41 70.6265C1397.41 50.0067 1386.97 36.3087 1371.42 36.3087C1355.88 36.3087 1345.44 50.0067 1345.44 70.6265C1345.44 91.2463 1355.73 104.944 1371.42 104.944C1387.11 104.944 1397.41 91.2463 1397.41 70.6265Z" fill="black"/>
</g>
<defs>
<clipPath id="clip0_2174_489">
<rect width="1408" height="107.349" fill="white"/>
</clipPath>
</defs>
</svg>
