<svg width="58" height="58" viewBox="0 0 58 58" fill="none" xmlns="http://www.w3.org/2000/svg">
<path d="M28.001 43.1423V44.2534H30.2232V43.1423H28.001ZM30.2232 14.2534C30.2232 13.6398 29.7257 13.1423 29.1121 13.1423C28.4984 13.1423 28.001 13.6398 28.001 14.2534H30.2232ZM18.001 24.2534H16.8899V26.4757H18.001V24.2534ZM29.9759 14.8972C30.2697 14.3584 30.0712 13.6835 29.5325 13.3897C28.9937 13.0958 28.3188 13.2944 28.025 13.8331L29.9759 14.8972ZM40.1115 26.4758H41.2226V24.2535H40.1115V26.4758ZM30.2232 43.1423V14.3652H28.001V43.1423H30.2232ZM30.2232 14.3652V14.2534H28.001V14.3652H30.2232ZM18.001 26.4757C19.637 26.4757 21.1996 25.592 22.5309 24.5073C23.8894 23.4003 25.1674 21.9516 26.2549 20.5442C27.3475 19.1303 28.2754 17.7218 28.9287 16.6701C29.256 16.1432 29.516 15.7033 29.6949 15.3937C29.7844 15.2389 29.8536 15.1165 29.901 15.032C29.9247 14.9897 29.9429 14.9569 29.9555 14.9342C29.9618 14.9229 29.9666 14.914 29.97 14.9078C29.9717 14.9047 29.9731 14.9023 29.974 14.9005C29.9745 14.8996 29.9749 14.8989 29.9752 14.8983C29.9754 14.8981 29.9755 14.8978 29.9756 14.8976C29.9757 14.8974 29.9759 14.8972 29.0004 14.3651C28.025 13.8331 28.025 13.833 28.0251 13.8329C28.0251 13.8329 28.0251 13.8329 28.0251 13.8329C28.025 13.833 28.0248 13.8333 28.0246 13.8337C28.0241 13.8346 28.0233 13.8362 28.0221 13.8383C28.0197 13.8427 28.0158 13.8497 28.0106 13.8591C28.0001 13.8781 27.9841 13.907 27.9626 13.9453C27.9197 14.0219 27.8552 14.1359 27.7708 14.2818C27.6021 14.5738 27.3543 14.9932 27.041 15.4975C26.4132 16.5081 25.5288 17.8495 24.4965 19.1855C23.4591 20.5279 22.2998 21.829 21.1272 22.7845C19.9273 23.7622 18.865 24.2534 18.001 24.2534V26.4757ZM29.1121 14.3652C28.0819 14.7815 28.082 14.7818 28.0822 14.7821C28.0822 14.7823 28.0824 14.7827 28.0825 14.783C28.0828 14.7837 28.0831 14.7845 28.0835 14.7856C28.0844 14.7876 28.0855 14.7903 28.0868 14.7936C28.0896 14.8003 28.0934 14.8096 28.0983 14.8215C28.1081 14.8452 28.1222 14.8791 28.1406 14.9224C28.1774 15.0091 28.2311 15.1337 28.3013 15.291C28.4417 15.6052 28.6483 16.0506 28.9165 16.5835C29.4516 17.6464 30.239 19.0713 31.2443 20.5033C32.2456 21.9296 33.4899 23.4018 34.9494 24.5262C36.4104 25.6518 38.1501 26.4758 40.1115 26.4758V24.2535C38.7955 24.2535 37.5215 23.7026 36.3056 22.7658C35.0881 21.8278 33.9923 20.5501 33.0631 19.2265C32.1379 17.9087 31.4045 16.5837 30.9014 15.5843C30.6506 15.086 30.4587 14.672 30.3304 14.3847C30.2663 14.2412 30.2181 14.1295 30.1866 14.0551C30.1708 14.0179 30.1592 13.99 30.1518 13.972C30.1481 13.9631 30.1454 13.9566 30.1438 13.9527C30.143 13.9508 30.1425 13.9495 30.1423 13.9489C30.1421 13.9486 30.1421 13.9484 30.1421 13.9484C30.1421 13.9484 30.1421 13.9486 30.1421 13.9486C30.1422 13.9487 30.1423 13.949 29.1121 14.3652Z" fill="black"/>
</svg>
