<svg width="418" height="32" viewBox="0 0 418 32" fill="none" xmlns="http://www.w3.org/2000/svg">
<g style="mix-blend-mode:exclusion">
<g clip-path="url(#clip0_1_2)">
<path d="M0 30.7756V9.55444H3.58902V27.6597H14.9531V30.7756H0Z" fill="white"/>
<path d="M32.7017 24.878H23.8857L21.8109 30.7748H18.12L25.662 9.56099H30.9545L38.5621 30.7748H34.7765L32.6944 24.878H32.7017ZM31.6971 21.9588L28.3483 12.3055L24.9267 21.9588H31.6971Z" fill="white"/>
<path d="M41.736 30.7752V9.52498H50.785C55.3786 9.52498 58.9312 11.1994 58.9312 15.9241C58.9312 19.1054 57.1549 20.8817 54.8399 21.7189C55.9465 22.5561 56.7473 23.8301 57.053 25.439C57.5553 28.2563 58.3925 30.0618 58.7274 30.7679H54.8399C54.2357 29.8288 54.0682 28.7223 53.5004 26.1743C52.9981 23.7937 52.1245 22.3159 50.3846 22.3159H45.325V30.7606H41.736V30.7752ZM45.325 19.4767H50.1152C52.6632 19.4767 55.3422 18.9089 55.3422 15.9896C55.3422 13.0703 53.1655 12.5389 50.683 12.5389H45.3177V19.4767H45.325Z" fill="white"/>
<path d="M76.68 24.878H67.8639L65.7891 30.7748H62.0982L69.6402 9.56099H74.9328L82.5403 30.7748H78.7548L76.6727 24.878H76.68ZM75.6753 21.9588L72.3266 12.3055L68.905 21.9588H75.6753Z" fill="white"/>
<path d="M107.518 9.19109C110.866 9.19109 113.953 10.5015 116.064 12.7073L113.553 15.117C112.148 13.4426 109.964 12.4016 107.518 12.4016C103.091 12.4016 99.6407 15.6557 99.6407 20.111C99.6407 24.5664 103.026 27.8861 107.452 27.8861C111.31 27.8861 114.121 25.44 114.222 22.1567H106.848V19.4122H117.404V30.7762H114.317V26.8887C112.941 29.5022 110.226 31.1111 106.506 31.1111C101.009 31.1111 96.0516 26.5902 96.0516 20.1183C96.0516 13.6464 101.213 9.19109 107.518 9.19109Z" fill="white"/>
<path d="M132.035 9.19109C138.369 9.19109 143.465 13.6464 143.465 20.1547C143.465 26.663 138.369 31.1184 132.035 31.1184C125.702 31.1184 120.569 26.663 120.569 20.1547C120.569 13.6464 125.767 9.19109 132.035 9.19109ZM139.876 20.1547C139.876 15.7649 136.491 12.4088 132.035 12.4088C127.58 12.4088 124.158 15.7285 124.158 20.1547C124.158 24.5809 127.58 27.9006 132.035 27.9006C136.491 27.9006 139.876 24.5809 139.876 20.1547Z" fill="white"/>
<path d="M146.641 30.7752V9.52498H149.756L161.659 24.6091V9.52498H165.241V30.7752H162.125L150.23 15.6911V30.7752H146.641Z" fill="white"/>
<path d="M168.414 30.7752V28.0234L181.991 12.6408H168.61V9.52498H186.715V12.2404L173.306 27.6594H186.512V30.7752H168.414Z" fill="white"/>
<path d="M204.465 24.8774H195.649L193.574 30.7742H189.89L197.432 9.56036H202.725L210.333 30.7742H206.547L204.472 24.8774H204.465ZM203.46 21.9581L200.112 12.3049L196.69 21.9581H203.46ZM198.335 7.34725L202.492 3.42335H206.38L201.182 7.34725H198.335Z" fill="white"/>
<path d="M213.5 30.7756V9.55444H217.089V27.6597H228.453V30.7756H213.5Z" fill="white"/>
<path d="M231.62 30.7753V9.45951H247.075V12.5389H235.274V18.4721H246.871V21.4569H235.274V27.725H247.512V30.7753H231.62Z" fill="white"/>
<path d="M250.678 30.7752V28.0234L264.255 12.6408H250.881V9.52498H268.979V12.2404L255.57 27.6594H268.776V30.7752H250.678Z" fill="white"/>
<path d="M285.404 19.818C285.404 25.3289 288.243 28.9762 292.458 28.9762C296.266 28.9762 299.425 27.3527 300.321 24.8848L300.648 25.0086C299.389 28.4957 295.865 30.8034 291.81 30.8034C286.219 30.8034 282.492 26.8723 282.492 20.9536C282.492 14.227 286.583 9.72793 292.742 9.72793C297.037 9.72793 300.24 11.6717 301.129 16.6148H285.746C285.52 17.5903 285.404 18.6677 285.404 19.818ZM292.575 10.3758C289.35 10.3758 286.925 12.5016 285.913 15.9596L297.889 15.8285C297.023 11.9119 295.043 10.3686 292.575 10.3686M300.357 15.7994C300.291 15.7994 300.233 15.7994 300.168 15.7994H300.357Z" fill="white"/>
<path d="M316.125 16.127V15.4791C316.125 13.1641 314.079 10.3394 311 10.2521C311.007 10.2521 311.014 10.2521 311.029 10.2521C310.971 10.2521 310.92 10.2521 310.861 10.2521H311.007C310.956 10.2521 310.912 10.2521 310.861 10.2521C308.67 10.2521 307.214 11.7081 307.214 13.8994C307.214 16.0906 308.998 18.1145 312.405 19.2064C316.132 20.4222 318.039 22.73 318.039 25.2852C318.039 28.6049 315.528 30.7962 311.8 30.7962C310.839 30.7962 309.9 30.5923 309.027 30.2138C307.214 29.5586 306.042 29.1363 306.042 29.1727V30.0245H305.234V23.5817H306.042V24.2733C306.042 26.3845 307.578 29.0562 310.017 29.9662C310.599 30.1628 311.196 30.272 311.793 30.272C314.268 30.272 315.885 28.6122 315.885 26.0569C315.885 24.1495 314.305 22.3296 311.182 21.3176C307.294 20.0582 305.263 17.5903 305.263 14.8312C305.263 11.7518 307.491 9.72793 310.854 9.72793C311.895 9.72793 312.892 9.93177 313.781 10.2958H313.817C315.193 10.8636 316.125 11.0674 316.125 10.9073V9.73521H316.933V16.1416H316.125V16.127Z" fill="white"/>
<path d="M332.862 11.5926H326.623L326.587 25.126C326.543 28.2855 327.883 29.5013 329.87 29.5013C331.53 29.5013 333.11 28.4457 333.881 26.9096L334.202 27.0698C333.11 29.2975 331.042 30.7971 329.018 30.7971C325.939 30.7971 323.871 29.0572 323.871 24.5145V11.2286H321.236V10.8209L326.419 5.26628H326.623V10.1293H332.862V11.5853V11.5926Z" fill="white"/>
<path d="M356.894 29.3853L351.179 30.8049H350.691V25.5051C349.308 28.7229 346.665 30.8049 343.884 30.8049C340.645 30.8049 338.497 28.0458 338.497 23.9181V11.5494C338.497 11.0253 337.886 10.9452 337.041 10.9452H335.826V10.1371H341.256V23.9181C341.256 26.9174 342.836 28.9049 345.188 28.9049C347.539 28.9049 349.592 27.3033 350.699 24.8426V11.5494C350.699 11.0253 350.131 10.9452 349.243 10.9452H348.027V10.1371H353.458V26.1822C353.458 28.8976 354.346 29.2252 355.685 28.8539L356.901 28.57V29.3781L356.894 29.3853Z" fill="white"/>
<path d="M381.973 29.3846L376.222 30.8042H375.734V27.6156C374.343 29.3991 371.65 30.6003 368.927 30.6003C363.416 30.6003 359.769 26.4289 359.769 20.1827C359.769 13.9365 363.212 9.72867 369.939 9.72867C372.13 9.72867 374.256 10.5804 375.734 11.8253V4.09398C375.734 1.90271 374.846 1.70615 373.506 2.10654L372.29 2.47054V1.66247L378.042 0.00263405H378.529V25.3733C378.529 28.7803 379.418 29.1807 380.757 28.8604L381.973 28.5765V29.3846ZM375.734 25.9412V14.4752C374.576 12.3058 372.312 10.544 370.259 10.544C365.192 10.544 362.557 14.1112 362.557 19.4183C362.557 25.4534 365.556 29.4647 370.055 29.4647C372.189 29.4647 374.438 28.3508 375.727 26.6473V25.9339L375.734 25.9412Z" fill="white"/>
<path d="M383.516 11.7972L389.231 10.1374H389.718V28.978C389.718 29.5021 390.446 29.5822 391.546 29.5822H392.761V30.3903H383.924V29.5822H385.139C386.231 29.5822 386.967 29.5021 386.967 28.978V14.833C386.967 12.1175 386.071 11.8336 384.739 12.2413L383.523 12.6053V11.7972H383.516ZM386.552 3.69462C386.552 2.63903 387.28 1.91103 388.335 1.91103C389.391 1.91103 390.119 2.63903 390.119 3.69462C390.119 4.75022 389.391 5.47822 388.335 5.47822C387.28 5.47822 386.552 4.75022 386.552 3.69462Z" fill="white"/>
<path d="M406.528 9.72793C412.811 9.72793 417.026 13.943 417.026 20.262C417.026 26.5811 412.811 30.7962 406.528 30.7962C400.246 30.7962 395.994 26.5811 395.994 20.262C395.994 13.943 400.209 9.72793 406.528 9.72793ZM413.983 20.262C413.983 14.3434 410.984 10.4122 406.528 10.4122C402.073 10.4122 399.073 14.3434 399.073 20.262C399.073 26.1807 402.029 30.1118 406.528 30.1118C411.027 30.1118 413.983 26.1807 413.983 20.262Z" fill="white"/>
</g>
</g>
<defs>
<clipPath id="clip0_1_2">
<rect width="417.026" height="31.1073" fill="white"/>
</clipPath>
</defs>
</svg>
