<svg width="164" height="13" viewBox="0 0 164 13" fill="none" xmlns="http://www.w3.org/2000/svg">
<g style="mix-blend-mode:exclusion">
<g clip-path="url(#clip0_2177_876)">
<path d="M0 12.1072V3.76172H1.41142V10.8818H5.88046V12.1072H0Z" fill="white"/>
<path d="M12.8594 9.78532H9.39244L8.5765 12.1043H7.125L10.091 3.76172H12.1723L15.1641 12.1043H13.6754L12.8566 9.78532H12.8594ZM12.4644 8.63729L11.1474 4.84104L9.80184 8.63729H12.4644Z" fill="white"/>
<path d="M16.4121 12.1069V3.75H19.9707C21.7772 3.75 23.1743 4.40847 23.1743 6.26651C23.1743 7.51761 22.4758 8.21617 21.5654 8.5454C22.0005 8.87464 22.3155 9.37565 22.4357 10.0084C22.6333 11.1163 22.9625 11.8263 23.0942 12.104H21.5654C21.3278 11.7347 21.2619 11.2995 21.0386 10.2975C20.8411 9.36134 20.4975 8.78016 19.8133 8.78016H17.8235V12.1012H16.4121V12.1069ZM17.8235 7.66362H19.7073C20.7094 7.66362 21.7629 7.44031 21.7629 6.29228C21.7629 5.14425 20.9069 4.93525 19.9306 4.93525H17.8207V7.66362H17.8235Z" fill="white"/>
<path d="M30.1544 9.78532H26.6874L25.8714 12.1043H24.4199L27.3859 3.76172H29.4673L32.459 12.1043H30.9703L30.1515 9.78532H30.1544ZM29.7593 8.63729L28.4423 4.84104L27.0968 8.63729H29.7593Z" fill="white"/>
<path d="M42.2825 3.61914C43.5995 3.61914 44.8134 4.13447 45.6436 5.00194L44.6559 5.94956C44.1034 5.29109 43.2445 4.88169 42.2825 4.88169C40.5419 4.88169 39.1849 6.16142 39.1849 7.91353C39.1849 9.66564 40.5161 10.9711 42.2568 10.9711C43.7741 10.9711 44.8792 10.0092 44.9193 8.71802H42.0192V7.63869H46.1704V12.1077H44.9565V10.5789C44.4154 11.6067 43.3476 12.2394 41.8846 12.2394C39.7231 12.2394 37.7734 10.4615 37.7734 7.9164C37.7734 5.37125 39.8033 3.61914 42.2825 3.61914Z" fill="white"/>
<path d="M51.9251 3.61914C54.4159 3.61914 56.4199 5.37125 56.4199 7.93071C56.4199 10.4902 54.4159 12.2423 51.9251 12.2423C49.4344 12.2423 47.416 10.4902 47.416 7.93071C47.416 5.37125 49.4601 3.61914 51.9251 3.61914ZM55.0085 7.93071C55.0085 6.20437 53.6772 4.88456 51.9251 4.88456C50.173 4.88456 48.8274 6.19005 48.8274 7.93071C48.8274 9.67137 50.173 10.9769 51.9251 10.9769C53.6772 10.9769 55.0085 9.67137 55.0085 7.93071Z" fill="white"/>
<path d="M57.668 12.1069V3.75H58.8933L63.5742 9.68199V3.75H64.9828V12.1069H63.7574L59.0794 6.1749V12.1069H57.668Z" fill="white"/>
<path d="M66.2305 12.1069V11.0247L71.5698 4.97533H66.3078V3.75H73.4279V4.81787L68.1544 10.8816H73.3477V12.1069H66.2305Z" fill="white"/>
<path d="M80.4074 9.78666H76.9404L76.1244 12.1056H74.6758L77.6418 3.76306H79.7231L82.7149 12.1056H81.2262L80.4102 9.78666H80.4074ZM80.0123 8.63862L78.6953 4.84238L77.3498 8.63862H80.0123ZM77.9968 2.89273L79.6315 1.34961H81.1603L79.1162 2.89273H77.9968Z" fill="white"/>
<path d="M83.9609 12.1072V3.76172H85.3724V10.8818H89.8414V12.1072H83.9609Z" fill="white"/>
<path d="M91.0879 12.1073V3.72461H97.1659V4.93563H92.5251V7.26891H97.0857V8.44272H92.5251V10.9077H97.3377V12.1073H91.0879Z" fill="white"/>
<path d="M98.582 12.1069V11.0247L103.921 4.97533H98.6622V3.75H105.779V4.81787L100.506 10.8816H105.699V12.1069H98.582Z" fill="white"/>
<path d="M112.239 7.7981C112.239 9.96533 113.355 11.3997 115.013 11.3997C116.51 11.3997 117.753 10.7612 118.105 9.79069L118.234 9.83936C117.739 11.2107 116.353 12.1183 114.758 12.1183C112.56 12.1183 111.094 10.5723 111.094 8.24471C111.094 5.59937 112.703 3.83008 115.125 3.83008C116.814 3.83008 118.074 4.59448 118.423 6.53841H112.373C112.285 6.92204 112.239 7.34575 112.239 7.7981ZM115.059 4.08488C113.791 4.08488 112.837 4.92085 112.439 6.28074L117.149 6.22921C116.808 4.68896 116.029 4.08202 115.059 4.08202M118.119 6.21776C118.094 6.21776 118.071 6.21776 118.045 6.21776H118.119Z" fill="white"/>
<path d="M124.32 6.34659V6.09179C124.32 5.18138 123.516 4.07056 122.305 4.03621C122.307 4.03621 122.31 4.03621 122.316 4.03621C122.293 4.03621 122.273 4.03621 122.25 4.03621H122.307C122.287 4.03621 122.27 4.03621 122.25 4.03621C121.388 4.03621 120.816 4.60879 120.816 5.47054C120.816 6.33228 121.517 7.12817 122.857 7.55761C124.323 8.03572 125.073 8.94327 125.073 9.94816C125.073 11.2537 124.085 12.1154 122.619 12.1154C122.242 12.1154 121.872 12.0352 121.529 11.8864C120.816 11.6287 120.355 11.4626 120.355 11.477V11.8119H120.037V9.27823H120.355V9.55021C120.355 10.3805 120.959 11.4312 121.918 11.789C122.147 11.8663 122.382 11.9093 122.617 11.9093C123.59 11.9093 124.226 11.2565 124.226 10.2516C124.226 9.50154 123.604 8.78581 122.376 8.38786C120.847 7.89257 120.049 6.92204 120.049 5.83699C120.049 4.62597 120.925 3.83008 122.247 3.83008C122.657 3.83008 123.049 3.91024 123.398 4.05339H123.413C123.954 4.2767 124.32 4.35686 124.32 4.29387V3.83294H124.638V6.35232H124.32V6.34659Z" fill="white"/>
<path d="M130.902 4.5621H128.449L128.434 9.88429C128.417 11.1268 128.944 11.6049 129.726 11.6049C130.378 11.6049 131 11.1898 131.303 10.5857L131.429 10.6487C131 11.5247 130.186 12.1145 129.391 12.1145C128.18 12.1145 127.366 11.4303 127.366 9.6438V4.41896H126.33V4.25863L128.368 2.07422H128.449V3.98665H130.902V4.55924V4.5621Z" fill="white"/>
<path d="M140.352 11.5598L138.104 12.1181H137.913V10.0339C137.369 11.2993 136.329 12.1181 135.236 12.1181C133.962 12.1181 133.117 11.033 133.117 9.40976V4.54564C133.117 4.33951 132.877 4.30802 132.545 4.30802H132.066V3.99023H134.202V9.40976C134.202 10.5893 134.823 11.3709 135.748 11.3709C136.673 11.3709 137.48 10.741 137.915 9.77335V4.54564C137.915 4.33951 137.692 4.30802 137.343 4.30802H136.865V3.99023H139V10.3001C139 11.368 139.35 11.4968 139.876 11.3508L140.355 11.2392V11.557L140.352 11.5598Z" fill="white"/>
<path d="M150.216 11.5587L147.955 12.117H147.763V10.863C147.216 11.5644 146.157 12.0368 145.086 12.0368C142.919 12.0368 141.484 10.3963 141.484 7.93994C141.484 5.48355 142.839 3.82878 145.484 3.82878C146.346 3.82878 147.182 4.16374 147.763 4.6533V1.61287C147.763 0.75113 147.413 0.673831 146.887 0.831293L146.409 0.974439V0.656654L148.67 0.00390625H148.862V9.98121C148.862 11.3211 149.211 11.4785 149.738 11.3526L150.216 11.2409V11.5587ZM147.763 10.2045V5.69541C147.308 4.84225 146.417 4.14943 145.61 4.14943C143.617 4.14943 142.581 5.55226 142.581 7.63934C142.581 10.0127 143.76 11.5902 145.53 11.5902C146.369 11.5902 147.253 11.1521 147.76 10.4822V10.2017L147.763 10.2045Z" fill="white"/>
<path d="M150.82 4.64372L153.068 3.99097H153.26V11.4002C153.26 11.6064 153.546 11.6379 153.978 11.6379H154.456V11.9556H150.981V11.6379H151.459C151.888 11.6379 152.177 11.6064 152.177 11.4002V5.83756C152.177 4.76969 151.825 4.65803 151.301 4.81835L150.823 4.9615V4.64372H150.82ZM152.014 1.45728C152.014 1.04215 152.3 0.755859 152.716 0.755859C153.131 0.755859 153.417 1.04215 153.417 1.45728C153.417 1.8724 153.131 2.15869 152.716 2.15869C152.3 2.15869 152.014 1.8724 152.014 1.45728Z" fill="white"/>
<path d="M159.871 3.83008C162.342 3.83008 164 5.48771 164 7.97274C164 10.4578 162.342 12.1154 159.871 12.1154C157.4 12.1154 155.729 10.4578 155.729 7.97274C155.729 5.48771 157.386 3.83008 159.871 3.83008ZM162.803 7.97274C162.803 5.64517 161.623 4.09919 159.871 4.09919C158.119 4.09919 156.94 5.64517 156.94 7.97274C156.94 10.3003 158.102 11.8463 159.871 11.8463C161.64 11.8463 162.803 10.3003 162.803 7.97274Z" fill="white"/>
</g>
</g>
<defs>
<clipPath id="clip0_2177_876">
<rect width="164" height="12.2333" fill="white"/>
</clipPath>
</defs>
</svg>
